M48
;Layer_Color=9474304
;FILE_FORMAT=2:4
INCH,LZ
;TYPE=PLATED
T01F00S00C0.0394
T03F00S00C0.1575
;TYPE=NON_PLATED
T06F00S00C0.1260
%
T01
X002425Y0098
X003213
X004
X004919Y01225
Y013234
X007317Y014041
Y0103
X007828Y007276
X008828
X009828
X010828
X011828
X012828
X013419Y0103
Y014041
X017725Y01395
Y01295
Y01195
Y01095
Y00995
Y00895
Y00795
Y00695
X019273Y0036
X022177Y0036
X023725Y00695
Y00795
Y00895
Y00995
Y01095
Y01195
Y01295
Y01395
X02605Y01415
Y01315
Y01215
Y01115
Y01015
Y00915
Y00815
Y00715
Y00615
Y01515
X03605
Y01415
Y01315
Y01215
Y01115
Y01015
Y00915
Y00815
Y00715
Y00615
Y01615
Y01715
Y01815
Y01915
Y02015
X02605
Y01915
Y01815
Y01715
Y01615
X02321Y017173
X02221
X02121
X02021
X01921
X01821
X01721
X01621
X012463Y0171
X011463
X010463
X009463
X008463
X007463
T03
X001575Y001575
X037795
Y023228
X001575
T06
X01671Y022223
X02281
M30
