G04*
G04 #@! TF.GenerationSoftware,Altium Limited,Altium Designer,23.10.1 (27)*
G04*
G04 Layer_Color=16711935*
%FSLAX24Y24*%
%MOIN*%
G70*
G04*
G04 #@! TF.SameCoordinates,035D824A-8269-4E4D-BA6D-B56C25CEACC5*
G04*
G04*
G04 #@! TF.FilePolarity,Positive*
G04*
G01*
G75*
%ADD58C,0.0005*%
D58*
X2231Y291D02*
G03*
X2231Y291I-8J0D01*
G01*
Y253D02*
G03*
X2231Y253I-8J0D01*
G01*
X2117Y584D02*
G03*
X2117Y584I-8J0D01*
G01*
Y623D02*
G03*
X2117Y623I-8J0D01*
G01*
Y662D02*
G03*
X2117Y662I-8J0D01*
G01*
Y702D02*
G03*
X2117Y702I-8J0D01*
G01*
Y741D02*
G03*
X2117Y741I-8J0D01*
G01*
Y781D02*
G03*
X2117Y781I-8J0D01*
G01*
X2229Y584D02*
G03*
X2229Y584I-8J0D01*
G01*
Y623D02*
G03*
X2229Y623I-8J0D01*
G01*
Y662D02*
G03*
X2229Y662I-8J0D01*
G01*
Y702D02*
G03*
X2229Y702I-8J0D01*
G01*
Y741D02*
G03*
X2229Y741I-8J0D01*
G01*
Y781D02*
G03*
X2229Y781I-8J0D01*
G01*
X1945Y287D02*
G03*
X1945Y287I-8J0D01*
G01*
Y327D02*
G03*
X1945Y327I-8J0D01*
G01*
Y366D02*
G03*
X1945Y366I-8J0D01*
G01*
X1901Y1185D02*
G03*
X1901Y1185I-8J0D01*
G01*
X2138Y909D02*
G03*
X2138Y909I-8J0D01*
G01*
Y949D02*
G03*
X2138Y949I-8J0D01*
G01*
Y988D02*
G03*
X2138Y988I-8J0D01*
G01*
Y1028D02*
G03*
X2138Y1028I-8J0D01*
G01*
Y1067D02*
G03*
X2138Y1067I-8J0D01*
G01*
Y1106D02*
G03*
X2138Y1106I-8J0D01*
G01*
Y1146D02*
G03*
X2138Y1146I-8J0D01*
G01*
Y1185D02*
G03*
X2138Y1185I-8J0D01*
G01*
X1901Y1146D02*
G03*
X1901Y1146I-8J0D01*
G01*
Y1106D02*
G03*
X1901Y1106I-8J0D01*
G01*
Y1067D02*
G03*
X1901Y1067I-8J0D01*
G01*
Y1028D02*
G03*
X1901Y1028I-8J0D01*
G01*
Y988D02*
G03*
X1901Y988I-8J0D01*
G01*
Y949D02*
G03*
X1901Y949I-8J0D01*
G01*
Y909D02*
G03*
X1901Y909I-8J0D01*
G01*
X2315Y250D02*
G03*
X2315Y250I-8J0D01*
G01*
Y329D02*
G03*
X2315Y329I-8J0D01*
G01*
Y289D02*
G03*
X2315Y289I-8J0D01*
G01*
Y211D02*
G03*
X2315Y211I-8J0D01*
G01*
Y762D02*
G03*
X2315Y762I-8J0D01*
G01*
Y722D02*
G03*
X2315Y722I-8J0D01*
G01*
Y683D02*
G03*
X2315Y683I-8J0D01*
G01*
Y644D02*
G03*
X2315Y644I-8J0D01*
G01*
Y604D02*
G03*
X2315Y604I-8J0D01*
G01*
Y565D02*
G03*
X2315Y565I-8J0D01*
G01*
Y526D02*
G03*
X2315Y526I-8J0D01*
G01*
Y486D02*
G03*
X2315Y486I-8J0D01*
G01*
Y407D02*
G03*
X2315Y407I-8J0D01*
G01*
Y368D02*
G03*
X2315Y368I-8J0D01*
G01*
Y447D02*
G03*
X2315Y447I-8J0D01*
G01*
X2709Y722D02*
G03*
X2709Y722I-8J0D01*
G01*
Y407D02*
G03*
X2709Y407I-8J0D01*
G01*
Y368D02*
G03*
X2709Y368I-8J0D01*
G01*
Y683D02*
G03*
X2709Y683I-8J0D01*
G01*
Y762D02*
G03*
X2709Y762I-8J0D01*
G01*
Y211D02*
G03*
X2709Y211I-8J0D01*
G01*
Y250D02*
G03*
X2709Y250I-8J0D01*
G01*
Y289D02*
G03*
X2709Y289I-8J0D01*
G01*
Y329D02*
G03*
X2709Y329I-8J0D01*
G01*
Y447D02*
G03*
X2709Y447I-8J0D01*
G01*
Y486D02*
G03*
X2709Y486I-8J0D01*
G01*
Y604D02*
G03*
X2709Y604I-8J0D01*
G01*
Y565D02*
G03*
X2709Y565I-8J0D01*
G01*
Y526D02*
G03*
X2709Y526I-8J0D01*
G01*
Y644D02*
G03*
X2709Y644I-8J0D01*
G01*
X2151Y374D02*
G03*
X2151Y374I-8J0D01*
G01*
X2004D02*
G03*
X2004Y374I-8J0D01*
G01*
X2151Y134D02*
G03*
X2151Y134I-8J0D01*
G01*
X2004D02*
G03*
X2004Y134I-8J0D01*
G01*
X1005Y305D02*
G03*
X1005Y305I-8J0D01*
G01*
Y344D02*
G03*
X1005Y344I-8J0D01*
G01*
Y384D02*
G03*
X1005Y384I-8J0D01*
G01*
Y423D02*
G03*
X1005Y423I-8J0D01*
G01*
Y462D02*
G03*
X1005Y462I-8J0D01*
G01*
Y502D02*
G03*
X1005Y502I-8J0D01*
G01*
Y541D02*
G03*
X1005Y541I-8J0D01*
G01*
Y581D02*
G03*
X1005Y581I-8J0D01*
G01*
X823Y325D02*
G03*
X823Y325I-25J0D01*
G01*
Y565D02*
G03*
X823Y565I-25J0D01*
G01*
X2006Y657D02*
G03*
X2006Y657I-8J0D01*
G01*
X1892Y657D02*
G03*
X1892Y657I-8J0D01*
G01*
M02*
