G04*
G04 #@! TF.GenerationSoftware,Altium Limited,Altium Designer,23.7.1 (13)*
G04*
G04 Layer_Color=255*
%FSLAX24Y24*%
%MOIN*%
G70*
G04*
G04 #@! TF.SameCoordinates,462104AE-C5C4-45F5-994C-927CF5565F6C*
G04*
G04*
G04 #@! TF.FilePolarity,Positive*
G04*
G01*
G75*
%ADD41R,0.7874X0.3150*%
%ADD42R,0.0591X0.0984*%
%ADD43O,0.0591X0.0984*%
%ADD44R,0.2756X0.3543*%
%ADD45C,0.0787*%
%ADD46R,0.0787X0.0787*%
%ADD47R,0.0984X0.0787*%
%ADD48O,0.0984X0.0787*%
%ADD49C,0.0984*%
%ADD50R,0.0984X0.0984*%
%ADD51C,0.1260*%
%ADD52O,0.0787X0.0984*%
%ADD53O,0.0984X0.0787*%
%ADD54R,0.0984X0.0787*%
%ADD55C,0.1575*%
D41*
X10350Y3850D02*
D03*
X9940Y20700D02*
D03*
D42*
X1598Y9800D02*
D03*
X4827D02*
D03*
D43*
X2425D02*
D03*
X3213D02*
D03*
X4000D02*
D03*
D44*
X2218Y12750D02*
D03*
D45*
X7317Y14041D02*
D03*
X13419D02*
D03*
X7828Y7276D02*
D03*
X8828D02*
D03*
X9828D02*
D03*
X10828D02*
D03*
X11828D02*
D03*
X12828D02*
D03*
X12463Y17100D02*
D03*
X11463D02*
D03*
X10463D02*
D03*
X9463D02*
D03*
X8463D02*
D03*
X7463D02*
D03*
X4919Y13234D02*
D03*
Y12250D02*
D03*
D46*
X7317Y10300D02*
D03*
X13419D02*
D03*
D47*
X17725Y13950D02*
D03*
D48*
X23725Y6950D02*
D03*
Y7950D02*
D03*
Y8950D02*
D03*
Y9950D02*
D03*
Y10950D02*
D03*
Y11950D02*
D03*
Y12950D02*
D03*
Y13950D02*
D03*
X17725Y12950D02*
D03*
Y11950D02*
D03*
Y10950D02*
D03*
Y9950D02*
D03*
Y8950D02*
D03*
Y7950D02*
D03*
Y6950D02*
D03*
D49*
X19273Y3600D02*
D03*
D50*
X22177Y3600D02*
D03*
D51*
X22810Y22223D02*
D03*
X16710D02*
D03*
D52*
X23210Y17173D02*
D03*
X22210D02*
D03*
X21210D02*
D03*
X20210D02*
D03*
X19210D02*
D03*
X18210D02*
D03*
X17210D02*
D03*
X16210D02*
D03*
D53*
X36050Y17150D02*
D03*
Y14150D02*
D03*
Y15150D02*
D03*
Y16150D02*
D03*
Y13150D02*
D03*
Y12150D02*
D03*
Y9150D02*
D03*
Y8150D02*
D03*
Y7150D02*
D03*
Y6150D02*
D03*
Y20150D02*
D03*
Y18150D02*
D03*
Y10150D02*
D03*
Y11150D02*
D03*
Y19150D02*
D03*
X26050Y12150D02*
D03*
Y10150D02*
D03*
Y11150D02*
D03*
Y13150D02*
D03*
Y14150D02*
D03*
Y15150D02*
D03*
Y16150D02*
D03*
Y17150D02*
D03*
Y18150D02*
D03*
Y19150D02*
D03*
Y20150D02*
D03*
Y8150D02*
D03*
Y9150D02*
D03*
Y7150D02*
D03*
D54*
Y6150D02*
D03*
D55*
X37795Y1575D02*
D03*
X1575D02*
D03*
X37795Y23228D02*
D03*
X1575D02*
D03*
M02*
