G04*
G04 #@! TF.GenerationSoftware,Altium Limited,Altium Designer,23.7.1 (13)*
G04*
G04 Layer_Physical_Order=2*
G04 Layer_Color=16711680*
%FSLAX24Y24*%
%MOIN*%
G70*
G04*
G04 #@! TF.SameCoordinates,462104AE-C5C4-45F5-994C-927CF5565F6C*
G04*
G04*
G04 #@! TF.FilePolarity,Positive*
G04*
G01*
G75*
%ADD39C,0.0300*%
%ADD40C,0.0400*%
%ADD41R,0.7874X0.3150*%
%ADD42R,0.0591X0.0984*%
%ADD43O,0.0591X0.0984*%
%ADD44R,0.2756X0.3543*%
%ADD45C,0.0787*%
%ADD46R,0.0787X0.0787*%
%ADD47R,0.0984X0.0787*%
%ADD48O,0.0984X0.0787*%
%ADD49C,0.0984*%
%ADD50R,0.0984X0.0984*%
%ADD51C,0.1260*%
%ADD52O,0.0787X0.0984*%
%ADD53O,0.0984X0.0787*%
%ADD54R,0.0984X0.0787*%
%ADD55C,0.1575*%
%ADD56C,0.0500*%
G36*
X38192Y24800D02*
X38192Y24800D01*
X38268Y24800D01*
X38419Y24780D01*
X38565Y24741D01*
X38705Y24683D01*
X38837Y24607D01*
X38957Y24515D01*
X39065Y24407D01*
X39157Y24287D01*
X39233Y24155D01*
X39291Y24015D01*
X39330Y23869D01*
X39350Y23718D01*
X39350Y23642D01*
X39350Y1161D01*
X39350Y1161D01*
Y1085D01*
X39330Y934D01*
X39291Y787D01*
X39232Y646D01*
X39156Y515D01*
X39064Y394D01*
X38956Y286D01*
X38835Y194D01*
X38704Y117D01*
X38563Y59D01*
X38416Y20D01*
X38265Y0D01*
X1104D01*
X950Y20D01*
X801Y60D01*
X658Y120D01*
X524Y197D01*
X401Y291D01*
X291Y401D01*
X197Y524D01*
X120Y658D01*
X60Y801D01*
X20Y950D01*
X0Y1104D01*
Y1181D01*
Y23622D01*
Y23699D01*
X20Y23852D01*
X60Y24002D01*
X119Y24144D01*
X196Y24278D01*
X290Y24400D01*
X400Y24510D01*
X522Y24604D01*
X656Y24681D01*
X799Y24740D01*
X948Y24780D01*
X1101Y24800D01*
X1178Y24800D01*
X38192Y24800D01*
X38192Y24800D01*
D02*
G37*
%LPC*%
G36*
X37888Y24173D02*
X37702D01*
X37520Y24137D01*
X37348Y24066D01*
X37193Y23962D01*
X37061Y23831D01*
X36958Y23676D01*
X36887Y23504D01*
X36850Y23321D01*
Y23135D01*
X36887Y22953D01*
X36958Y22781D01*
X37061Y22626D01*
X37193Y22494D01*
X37348Y22391D01*
X37520Y22320D01*
X37702Y22283D01*
X37888D01*
X38071Y22320D01*
X38243Y22391D01*
X38398Y22494D01*
X38529Y22626D01*
X38633Y22781D01*
X38704Y22953D01*
X38740Y23135D01*
Y23321D01*
X38704Y23504D01*
X38633Y23676D01*
X38529Y23831D01*
X38398Y23962D01*
X38243Y24066D01*
X38071Y24137D01*
X37888Y24173D01*
D02*
G37*
G36*
X1668D02*
X1482D01*
X1299Y24137D01*
X1127Y24066D01*
X972Y23962D01*
X841Y23831D01*
X737Y23676D01*
X666Y23504D01*
X630Y23321D01*
Y23135D01*
X666Y22953D01*
X737Y22781D01*
X841Y22626D01*
X972Y22494D01*
X1127Y22391D01*
X1299Y22320D01*
X1482Y22283D01*
X1668D01*
X1850Y22320D01*
X2022Y22391D01*
X2177Y22494D01*
X2309Y22626D01*
X2412Y22781D01*
X2483Y22953D01*
X2520Y23135D01*
Y23321D01*
X2483Y23504D01*
X2412Y23676D01*
X2309Y23831D01*
X2177Y23962D01*
X2022Y24066D01*
X1850Y24137D01*
X1668Y24173D01*
D02*
G37*
G36*
X16788Y23010D02*
X16632D01*
X16480Y22980D01*
X16337Y22921D01*
X16208Y22834D01*
X16098Y22725D01*
X16012Y22596D01*
X15953Y22453D01*
X15923Y22300D01*
Y22145D01*
X15953Y21993D01*
X16012Y21850D01*
X16098Y21721D01*
X16208Y21611D01*
X16337Y21525D01*
X16480Y21466D01*
X16632Y21435D01*
X16788D01*
X16940Y21466D01*
X17083Y21525D01*
X17212Y21611D01*
X17322Y21721D01*
X17408Y21850D01*
X17467Y21993D01*
X17497Y22145D01*
Y22300D01*
X17467Y22453D01*
X17408Y22596D01*
X17322Y22725D01*
X17212Y22834D01*
X17083Y22921D01*
X16940Y22980D01*
X16788Y23010D01*
D02*
G37*
G36*
X14035Y22432D02*
X5846D01*
Y18968D01*
X14035D01*
Y22432D01*
D02*
G37*
G36*
X18375Y14501D02*
X17075D01*
Y14361D01*
X15768D01*
X15662Y14347D01*
X15562Y14306D01*
X15477Y14241D01*
X13129Y11892D01*
X13063Y11807D01*
X13022Y11708D01*
X13008Y11601D01*
Y10852D01*
X12868D01*
Y9749D01*
X13273D01*
X13313Y9733D01*
X13419Y9719D01*
X13526Y9733D01*
X13565Y9749D01*
X13970D01*
Y10852D01*
X13830D01*
Y11431D01*
X15938Y13539D01*
X17075D01*
Y13399D01*
X17228D01*
X17244Y13351D01*
X17234Y13343D01*
X17145Y13228D01*
X17090Y13094D01*
X17071Y12950D01*
X17090Y12806D01*
X17145Y12672D01*
X17234Y12557D01*
X17349Y12469D01*
X17483Y12413D01*
X17627Y12394D01*
X17823D01*
X17967Y12413D01*
X18101Y12469D01*
X18217Y12557D01*
X18305Y12672D01*
X18360Y12806D01*
X18379Y12950D01*
X18360Y13094D01*
X18305Y13228D01*
X18217Y13343D01*
X18206Y13351D01*
X18222Y13399D01*
X18375D01*
Y14501D01*
D02*
G37*
G36*
X3753Y14679D02*
X683D01*
Y10821D01*
X3719D01*
X3740Y10771D01*
X3722Y10753D01*
X3657Y10668D01*
X3616Y10569D01*
X3602Y10463D01*
Y10311D01*
X3554Y10295D01*
X3536Y10320D01*
X3441Y10392D01*
X3331Y10438D01*
X3213Y10454D01*
X3094Y10438D01*
X2984Y10392D01*
X2890Y10320D01*
X2844Y10260D01*
X2794D01*
X2748Y10320D01*
X2654Y10392D01*
X2543Y10438D01*
X2425Y10454D01*
X2307Y10438D01*
X2197Y10392D01*
X2102Y10320D01*
X2099Y10315D01*
X2051Y10331D01*
Y10450D01*
X1146D01*
Y9150D01*
X2051D01*
Y9269D01*
X2099Y9285D01*
X2102Y9280D01*
X2197Y9208D01*
X2307Y9162D01*
X2425Y9146D01*
X2543Y9162D01*
X2654Y9208D01*
X2748Y9280D01*
X2769Y9307D01*
X2819Y9290D01*
Y9220D01*
X2833Y9114D01*
X2874Y9015D01*
X2939Y8929D01*
X3559Y8309D01*
X3645Y8244D01*
X3744Y8203D01*
X3850Y8189D01*
X6583D01*
X6689Y8203D01*
X6788Y8244D01*
X6873Y8309D01*
X7607Y9043D01*
X7673Y9128D01*
X7714Y9228D01*
X7728Y9334D01*
Y9749D01*
X7868D01*
Y10852D01*
X6766D01*
Y9749D01*
X6906D01*
Y9504D01*
X6413Y9011D01*
X4020D01*
X3925Y9106D01*
X3949Y9153D01*
X4000Y9146D01*
X4118Y9162D01*
X4228Y9208D01*
X4323Y9280D01*
X4327Y9285D01*
X4374Y9269D01*
Y9150D01*
X5280D01*
Y10450D01*
X4646D01*
X4627Y10496D01*
X5210Y11079D01*
X5275Y11164D01*
X5316Y11263D01*
X5330Y11369D01*
Y11882D01*
X5361Y11912D01*
X5433Y12037D01*
X5471Y12177D01*
Y12323D01*
X5433Y12463D01*
X5361Y12588D01*
X5258Y12691D01*
X5132Y12764D01*
X4992Y12801D01*
X4847D01*
X4707Y12764D01*
X4581Y12691D01*
X4478Y12588D01*
X4406Y12463D01*
X4368Y12323D01*
Y12177D01*
X4406Y12037D01*
X4478Y11912D01*
X4508Y11882D01*
Y11540D01*
X3803Y10835D01*
X3753Y10855D01*
Y14679D01*
D02*
G37*
G36*
X35100Y23660D02*
X25350D01*
X25270Y23650D01*
X25195Y23619D01*
X25131Y23569D01*
X23631Y22070D01*
X23587Y22093D01*
X23597Y22145D01*
Y22300D01*
X23567Y22453D01*
X23508Y22596D01*
X23422Y22725D01*
X23312Y22834D01*
X23183Y22921D01*
X23040Y22980D01*
X22888Y23010D01*
X22732D01*
X22580Y22980D01*
X22437Y22921D01*
X22308Y22834D01*
X22198Y22725D01*
X22112Y22596D01*
X22053Y22453D01*
X22023Y22300D01*
Y22145D01*
X22053Y21993D01*
X22112Y21850D01*
X22198Y21721D01*
X22308Y21611D01*
X22437Y21525D01*
X22580Y21466D01*
X22732Y21435D01*
X22888D01*
X22940Y21446D01*
X22963Y21402D01*
X22872Y21310D01*
X18100D01*
X18020Y21300D01*
X17945Y21269D01*
X17881Y21219D01*
X15991Y19329D01*
X15941Y19265D01*
X15910Y19190D01*
X15900Y19110D01*
Y18810D01*
X9350D01*
X9270Y18800D01*
X9195Y18769D01*
X9131Y18719D01*
X8284Y17872D01*
X8235Y17808D01*
X8204Y17733D01*
X8193Y17653D01*
Y17581D01*
X8125Y17541D01*
X8022Y17438D01*
X7988Y17380D01*
X7938D01*
X7904Y17438D01*
X7801Y17541D01*
X7676Y17614D01*
X7536Y17651D01*
X7390D01*
X7250Y17614D01*
X7125Y17541D01*
X7022Y17438D01*
X6949Y17313D01*
X6912Y17173D01*
Y17027D01*
X6949Y16887D01*
X7022Y16762D01*
X7125Y16659D01*
X7250Y16586D01*
X7390Y16549D01*
X7536D01*
X7676Y16586D01*
X7801Y16659D01*
X7904Y16762D01*
X7938Y16820D01*
X7988D01*
X8022Y16762D01*
X8125Y16659D01*
X8250Y16586D01*
X8390Y16549D01*
X8536D01*
X8676Y16586D01*
X8801Y16659D01*
X8904Y16762D01*
X8938Y16820D01*
X8988D01*
X9022Y16762D01*
X9125Y16659D01*
X9250Y16586D01*
X9390Y16549D01*
X9536D01*
X9676Y16586D01*
X9801Y16659D01*
X9904Y16762D01*
X9938Y16820D01*
X9988D01*
X10022Y16762D01*
X10125Y16659D01*
X10153Y16643D01*
Y16437D01*
X10163Y16357D01*
X10176Y16326D01*
X10194Y16282D01*
X10244Y16218D01*
X11231Y15231D01*
X11295Y15181D01*
X11370Y15150D01*
X11450Y15140D01*
X24600D01*
X24680Y15150D01*
X24755Y15181D01*
X24819Y15231D01*
X25428Y15840D01*
X25495D01*
X25558Y15757D01*
X25659Y15680D01*
X25663Y15666D01*
Y15634D01*
X25659Y15620D01*
X25558Y15543D01*
X25470Y15428D01*
X25463Y15410D01*
X25400D01*
X25320Y15400D01*
X25245Y15369D01*
X25181Y15319D01*
X24210Y14348D01*
X24101Y14431D01*
X23967Y14487D01*
X23823Y14506D01*
X23627D01*
X23483Y14487D01*
X23349Y14431D01*
X23234Y14343D01*
X23145Y14228D01*
X23090Y14094D01*
X23071Y13950D01*
X23090Y13806D01*
X23145Y13672D01*
X23234Y13557D01*
X23334Y13480D01*
X23338Y13466D01*
Y13434D01*
X23334Y13420D01*
X23234Y13343D01*
X23145Y13228D01*
X23090Y13094D01*
X23071Y12950D01*
X23090Y12806D01*
X23145Y12672D01*
X23234Y12557D01*
X23334Y12480D01*
X23338Y12466D01*
Y12434D01*
X23334Y12420D01*
X23234Y12343D01*
X23145Y12228D01*
X23090Y12094D01*
X23071Y11950D01*
X23090Y11806D01*
X23145Y11672D01*
X23234Y11557D01*
X23334Y11480D01*
X23338Y11466D01*
Y11434D01*
X23334Y11420D01*
X23234Y11343D01*
X23145Y11228D01*
X23090Y11094D01*
X23071Y10950D01*
X23090Y10806D01*
X23145Y10672D01*
X23234Y10557D01*
X23334Y10480D01*
X23338Y10466D01*
Y10434D01*
X23334Y10420D01*
X23234Y10343D01*
X23145Y10228D01*
X23090Y10094D01*
X23071Y9950D01*
X23090Y9806D01*
X23145Y9672D01*
X23234Y9557D01*
X23334Y9480D01*
X23338Y9466D01*
Y9434D01*
X23334Y9420D01*
X23234Y9343D01*
X23145Y9228D01*
X23090Y9094D01*
X23071Y8950D01*
X23090Y8806D01*
X23145Y8672D01*
X23234Y8557D01*
X23334Y8480D01*
X23338Y8466D01*
Y8434D01*
X23334Y8420D01*
X23234Y8343D01*
X23145Y8228D01*
X23090Y8094D01*
X23071Y7950D01*
X23090Y7806D01*
X23145Y7672D01*
X23234Y7557D01*
X23349Y7469D01*
X23483Y7413D01*
X23627Y7394D01*
X23823D01*
X23967Y7413D01*
X24101Y7469D01*
X24217Y7557D01*
X24305Y7672D01*
X24333Y7740D01*
X25532D01*
X25574Y7745D01*
X25674Y7669D01*
X25808Y7613D01*
X25952Y7594D01*
X26148D01*
X26292Y7613D01*
X26426Y7669D01*
X26542Y7757D01*
X26630Y7872D01*
X26685Y8006D01*
X26704Y8150D01*
X26685Y8294D01*
X26630Y8428D01*
X26542Y8543D01*
X26441Y8620D01*
X26437Y8634D01*
Y8666D01*
X26441Y8680D01*
X26542Y8757D01*
X26630Y8872D01*
X26685Y9006D01*
X26704Y9150D01*
X26685Y9294D01*
X26630Y9428D01*
X26542Y9543D01*
X26441Y9620D01*
X26437Y9634D01*
Y9666D01*
X26441Y9680D01*
X26542Y9757D01*
X26630Y9872D01*
X26685Y10006D01*
X26704Y10150D01*
X26685Y10294D01*
X26630Y10428D01*
X26542Y10543D01*
X26441Y10620D01*
X26437Y10634D01*
Y10666D01*
X26441Y10680D01*
X26542Y10757D01*
X26630Y10872D01*
X26685Y11006D01*
X26704Y11150D01*
X26685Y11294D01*
X26630Y11428D01*
X26542Y11543D01*
X26441Y11620D01*
X26437Y11634D01*
Y11666D01*
X26441Y11680D01*
X26542Y11757D01*
X26630Y11872D01*
X26685Y12006D01*
X26704Y12150D01*
X26685Y12294D01*
X26630Y12428D01*
X26542Y12543D01*
X26441Y12620D01*
X26437Y12634D01*
Y12666D01*
X26441Y12680D01*
X26542Y12757D01*
X26630Y12872D01*
X26685Y13006D01*
X26704Y13150D01*
X26685Y13294D01*
X26630Y13428D01*
X26542Y13543D01*
X26441Y13620D01*
X26437Y13634D01*
Y13666D01*
X26441Y13680D01*
X26542Y13757D01*
X26630Y13872D01*
X26685Y14006D01*
X26704Y14150D01*
X26685Y14294D01*
X26630Y14428D01*
X26542Y14543D01*
X26441Y14620D01*
X26437Y14634D01*
Y14666D01*
X26441Y14680D01*
X26542Y14757D01*
X26630Y14872D01*
X26685Y15006D01*
X26704Y15150D01*
X26685Y15294D01*
X26630Y15428D01*
X26542Y15543D01*
X26441Y15620D01*
X26437Y15634D01*
Y15666D01*
X26441Y15680D01*
X26542Y15757D01*
X26630Y15872D01*
X26685Y16006D01*
X26704Y16150D01*
X26685Y16294D01*
X26630Y16428D01*
X26542Y16543D01*
X26441Y16620D01*
X26437Y16634D01*
Y16666D01*
X26441Y16680D01*
X26542Y16757D01*
X26630Y16872D01*
X26685Y17006D01*
X26704Y17150D01*
X26685Y17294D01*
X26630Y17428D01*
X26542Y17543D01*
X26441Y17620D01*
X26437Y17634D01*
Y17666D01*
X26441Y17680D01*
X26542Y17757D01*
X26630Y17872D01*
X26685Y18006D01*
X26704Y18150D01*
X26685Y18294D01*
X26630Y18428D01*
X26542Y18543D01*
X26441Y18620D01*
X26437Y18634D01*
Y18666D01*
X26441Y18680D01*
X26542Y18757D01*
X26630Y18872D01*
X26685Y19006D01*
X26704Y19150D01*
X26685Y19294D01*
X26630Y19428D01*
X26542Y19543D01*
X26441Y19620D01*
X26437Y19634D01*
Y19666D01*
X26441Y19680D01*
X26542Y19757D01*
X26630Y19872D01*
X26685Y20006D01*
X26704Y20150D01*
X26685Y20294D01*
X26630Y20428D01*
X26542Y20543D01*
X26481Y20590D01*
X26498Y20640D01*
X30322D01*
X35031Y15931D01*
X35095Y15881D01*
X35170Y15850D01*
X35250Y15840D01*
X35495D01*
X35558Y15757D01*
X35659Y15680D01*
X35663Y15666D01*
Y15634D01*
X35659Y15620D01*
X35558Y15543D01*
X35470Y15428D01*
X35415Y15294D01*
X35396Y15150D01*
X35415Y15006D01*
X35470Y14872D01*
X35558Y14757D01*
X35659Y14680D01*
X35663Y14666D01*
Y14634D01*
X35659Y14620D01*
X35558Y14543D01*
X35470Y14428D01*
X35415Y14294D01*
X35396Y14150D01*
X35415Y14006D01*
X35470Y13872D01*
X35558Y13757D01*
X35659Y13680D01*
X35663Y13666D01*
Y13634D01*
X35659Y13620D01*
X35558Y13543D01*
X35470Y13428D01*
X35415Y13294D01*
X35396Y13150D01*
X35415Y13006D01*
X35470Y12872D01*
X35558Y12757D01*
X35659Y12680D01*
X35663Y12666D01*
Y12634D01*
X35659Y12620D01*
X35558Y12543D01*
X35495Y12460D01*
X35250D01*
X35170Y12450D01*
X35095Y12419D01*
X35031Y12369D01*
X28072Y5410D01*
X16946D01*
X15687Y6669D01*
X15623Y6719D01*
X15548Y6750D01*
X15468Y6760D01*
X13136D01*
X13123Y6810D01*
X13166Y6835D01*
X13269Y6938D01*
X13341Y7063D01*
X13379Y7203D01*
Y7317D01*
X13851Y7789D01*
X17097D01*
X17145Y7672D01*
X17234Y7557D01*
X17349Y7469D01*
X17483Y7413D01*
X17627Y7394D01*
X17823D01*
X17967Y7413D01*
X18101Y7469D01*
X18217Y7557D01*
X18305Y7672D01*
X18360Y7806D01*
X18379Y7950D01*
X18360Y8094D01*
X18305Y8228D01*
X18217Y8343D01*
X18116Y8420D01*
X18112Y8434D01*
Y8466D01*
X18116Y8480D01*
X18217Y8557D01*
X18305Y8672D01*
X18360Y8806D01*
X18379Y8950D01*
X18360Y9094D01*
X18305Y9228D01*
X18217Y9343D01*
X18116Y9420D01*
X18112Y9434D01*
Y9466D01*
X18116Y9480D01*
X18217Y9557D01*
X18305Y9672D01*
X18360Y9806D01*
X18379Y9950D01*
X18360Y10094D01*
X18305Y10228D01*
X18217Y10343D01*
X18116Y10420D01*
X18112Y10434D01*
Y10466D01*
X18116Y10480D01*
X18217Y10557D01*
X18305Y10672D01*
X18360Y10806D01*
X18379Y10950D01*
X18360Y11094D01*
X18305Y11228D01*
X18217Y11343D01*
X18101Y11431D01*
X17967Y11487D01*
X17823Y11506D01*
X17627D01*
X17483Y11487D01*
X17349Y11431D01*
X17234Y11343D01*
X17145Y11228D01*
X17090Y11094D01*
X17071Y10950D01*
X17090Y10806D01*
X17145Y10672D01*
X17234Y10557D01*
X17334Y10480D01*
X17338Y10466D01*
Y10434D01*
X17334Y10420D01*
X17234Y10343D01*
X17145Y10228D01*
X17090Y10094D01*
X17071Y9950D01*
X17090Y9806D01*
X17145Y9672D01*
X17158Y9655D01*
X17136Y9611D01*
X9150D01*
X9057Y9598D01*
X8970Y9562D01*
X8895Y9505D01*
X7573Y8183D01*
X7515Y8108D01*
X7479Y8021D01*
X7467Y7928D01*
Y7695D01*
X7387Y7614D01*
X7314Y7489D01*
X7276Y7349D01*
Y7203D01*
X7314Y7063D01*
X7387Y6938D01*
X7489Y6835D01*
X7615Y6762D01*
X7755Y6725D01*
X7900D01*
X8040Y6762D01*
X8166Y6835D01*
X8269Y6938D01*
X8341Y7063D01*
X8379Y7203D01*
Y7349D01*
X8341Y7489D01*
X8269Y7614D01*
X8188Y7695D01*
Y7778D01*
X9299Y8889D01*
X17072D01*
X17080Y8882D01*
X17090Y8806D01*
X17145Y8672D01*
X17231Y8561D01*
X17226Y8534D01*
X17218Y8511D01*
X13702D01*
X13608Y8498D01*
X13521Y8462D01*
X13447Y8405D01*
X12869Y7827D01*
X12755D01*
X12615Y7790D01*
X12489Y7717D01*
X12386Y7614D01*
X12353Y7556D01*
X12303D01*
X12269Y7614D01*
X12166Y7717D01*
X12040Y7790D01*
X11900Y7827D01*
X11755D01*
X11615Y7790D01*
X11489Y7717D01*
X11386Y7614D01*
X11353Y7556D01*
X11303D01*
X11269Y7614D01*
X11166Y7717D01*
X11040Y7790D01*
X10900Y7827D01*
X10755D01*
X10615Y7790D01*
X10489Y7717D01*
X10387Y7614D01*
X10353Y7556D01*
X10303D01*
X10269Y7614D01*
X10166Y7717D01*
X10040Y7790D01*
X9900Y7827D01*
X9755D01*
X9615Y7790D01*
X9489Y7717D01*
X9387Y7614D01*
X9314Y7489D01*
X9276Y7349D01*
Y7203D01*
X9314Y7063D01*
X9387Y6938D01*
X9489Y6835D01*
X9613Y6764D01*
X9621Y6699D01*
X9652Y6624D01*
X9702Y6560D01*
X10581Y5681D01*
X10644Y5632D01*
X10644Y5629D01*
X10633Y5582D01*
X6256D01*
Y2118D01*
X14444D01*
Y5540D01*
X14444Y5582D01*
X14491Y5590D01*
X14939D01*
X16349Y4181D01*
X16413Y4131D01*
X16488Y4100D01*
X16568Y4090D01*
X21527D01*
Y2950D01*
X22827D01*
Y3290D01*
X28950D01*
X29030Y3300D01*
X29105Y3331D01*
X29169Y3381D01*
X35546Y9758D01*
X35558Y9757D01*
X35659Y9680D01*
X35663Y9666D01*
Y9634D01*
X35659Y9620D01*
X35558Y9543D01*
X35470Y9428D01*
X35415Y9294D01*
X35396Y9150D01*
X35415Y9006D01*
X35470Y8872D01*
X35558Y8757D01*
X35659Y8680D01*
X35663Y8666D01*
Y8634D01*
X35659Y8620D01*
X35558Y8543D01*
X35470Y8428D01*
X35415Y8294D01*
X35396Y8150D01*
X35415Y8006D01*
X35470Y7872D01*
X35558Y7757D01*
X35674Y7669D01*
X35808Y7613D01*
X35952Y7594D01*
X36148D01*
X36292Y7613D01*
X36426Y7669D01*
X36542Y7757D01*
X36630Y7872D01*
X36685Y8006D01*
X36704Y8150D01*
X36685Y8294D01*
X36630Y8428D01*
X36542Y8543D01*
X36441Y8620D01*
X36437Y8634D01*
Y8666D01*
X36441Y8680D01*
X36542Y8757D01*
X36630Y8872D01*
X36685Y9006D01*
X36704Y9150D01*
X36685Y9294D01*
X36630Y9428D01*
X36542Y9543D01*
X36441Y9620D01*
X36437Y9634D01*
Y9666D01*
X36441Y9680D01*
X36542Y9757D01*
X36630Y9872D01*
X36685Y10006D01*
X36704Y10150D01*
X36685Y10294D01*
X36630Y10428D01*
X36542Y10543D01*
X36441Y10620D01*
X36437Y10634D01*
Y10666D01*
X36441Y10680D01*
X36542Y10757D01*
X36630Y10872D01*
X36685Y11006D01*
X36704Y11150D01*
X36685Y11294D01*
X36630Y11428D01*
X36542Y11543D01*
X36441Y11620D01*
X36437Y11634D01*
Y11666D01*
X36441Y11680D01*
X36542Y11757D01*
X36630Y11872D01*
X36685Y12006D01*
X36704Y12150D01*
X36685Y12294D01*
X36630Y12428D01*
X36542Y12543D01*
X36441Y12620D01*
X36437Y12634D01*
Y12666D01*
X36441Y12680D01*
X36542Y12757D01*
X36630Y12872D01*
X36685Y13006D01*
X36704Y13150D01*
X36685Y13294D01*
X36630Y13428D01*
X36542Y13543D01*
X36441Y13620D01*
X36437Y13634D01*
Y13666D01*
X36441Y13680D01*
X36542Y13757D01*
X36630Y13872D01*
X36685Y14006D01*
X36704Y14150D01*
X36685Y14294D01*
X36630Y14428D01*
X36542Y14543D01*
X36441Y14620D01*
X36437Y14634D01*
Y14666D01*
X36441Y14680D01*
X36542Y14757D01*
X36630Y14872D01*
X36685Y15006D01*
X36704Y15150D01*
X36685Y15294D01*
X36630Y15428D01*
X36542Y15543D01*
X36441Y15620D01*
X36437Y15634D01*
Y15666D01*
X36441Y15680D01*
X36542Y15757D01*
X36630Y15872D01*
X36685Y16006D01*
X36704Y16150D01*
X36685Y16294D01*
X36630Y16428D01*
X36542Y16543D01*
X36441Y16620D01*
X36437Y16634D01*
Y16666D01*
X36441Y16680D01*
X36542Y16757D01*
X36630Y16872D01*
X36685Y17006D01*
X36704Y17150D01*
X36685Y17294D01*
X36630Y17428D01*
X36542Y17543D01*
X36441Y17620D01*
X36437Y17634D01*
Y17666D01*
X36441Y17680D01*
X36542Y17757D01*
X36630Y17872D01*
X36685Y18006D01*
X36704Y18150D01*
X36685Y18294D01*
X36630Y18428D01*
X36542Y18543D01*
X36441Y18620D01*
X36437Y18634D01*
Y18666D01*
X36441Y18680D01*
X36542Y18757D01*
X36630Y18872D01*
X36685Y19006D01*
X36704Y19150D01*
X36685Y19294D01*
X36630Y19428D01*
X36542Y19543D01*
X36441Y19620D01*
X36437Y19634D01*
Y19666D01*
X36441Y19680D01*
X36542Y19757D01*
X36630Y19872D01*
X36685Y20006D01*
X36704Y20150D01*
X36685Y20294D01*
X36630Y20428D01*
X36542Y20543D01*
X36426Y20631D01*
X36292Y20687D01*
X36148Y20706D01*
X35952D01*
X35808Y20687D01*
X35674Y20631D01*
X35558Y20543D01*
X35470Y20428D01*
X35415Y20294D01*
X35396Y20150D01*
X35415Y20006D01*
X35470Y19872D01*
X35558Y19757D01*
X35659Y19680D01*
X35663Y19666D01*
Y19634D01*
X35659Y19620D01*
X35558Y19543D01*
X35495Y19460D01*
X34678D01*
X32369Y21769D01*
X32305Y21819D01*
X32230Y21850D01*
X32150Y21860D01*
X25300D01*
X25220Y21850D01*
X25145Y21819D01*
X25081Y21769D01*
X23322Y20010D01*
X19300D01*
X19220Y20000D01*
X19145Y19969D01*
X19081Y19919D01*
X17991Y18829D01*
X17941Y18765D01*
X17910Y18690D01*
X17900Y18610D01*
Y17728D01*
X17817Y17664D01*
X17729Y17549D01*
X17673Y17415D01*
X17654Y17271D01*
Y17074D01*
X17673Y16931D01*
X17729Y16796D01*
X17817Y16681D01*
X17932Y16593D01*
X18066Y16537D01*
X18210Y16518D01*
X18354Y16537D01*
X18488Y16593D01*
X18603Y16681D01*
X18680Y16782D01*
X18694Y16786D01*
X18726D01*
X18740Y16782D01*
X18817Y16681D01*
X18932Y16593D01*
X19066Y16537D01*
X19210Y16518D01*
X19354Y16537D01*
X19488Y16593D01*
X19603Y16681D01*
X19680Y16782D01*
X19694Y16786D01*
X19726D01*
X19740Y16782D01*
X19817Y16681D01*
X19932Y16593D01*
X20066Y16537D01*
X20210Y16518D01*
X20354Y16537D01*
X20488Y16593D01*
X20603Y16681D01*
X20680Y16782D01*
X20694Y16786D01*
X20726D01*
X20740Y16782D01*
X20817Y16681D01*
X20932Y16593D01*
X21066Y16537D01*
X21210Y16518D01*
X21354Y16537D01*
X21488Y16593D01*
X21603Y16681D01*
X21680Y16782D01*
X21694Y16786D01*
X21726D01*
X21740Y16782D01*
X21817Y16681D01*
X21932Y16593D01*
X22066Y16537D01*
X22210Y16518D01*
X22354Y16537D01*
X22488Y16593D01*
X22603Y16681D01*
X22680Y16782D01*
X22694Y16786D01*
X22726D01*
X22740Y16782D01*
X22817Y16681D01*
X22932Y16593D01*
X23066Y16537D01*
X23210Y16518D01*
X23354Y16537D01*
X23488Y16593D01*
X23603Y16681D01*
X23691Y16796D01*
X23747Y16931D01*
X23766Y17074D01*
Y17271D01*
X23747Y17415D01*
X23691Y17549D01*
X23603Y17664D01*
X23488Y17753D01*
X23354Y17808D01*
X23210Y17827D01*
X23066Y17808D01*
X22932Y17753D01*
X22817Y17664D01*
X22740Y17564D01*
X22726Y17560D01*
X22694D01*
X22680Y17564D01*
X22603Y17664D01*
X22488Y17753D01*
X22354Y17808D01*
X22210Y17827D01*
X22066Y17808D01*
X21932Y17753D01*
X21817Y17664D01*
X21740Y17564D01*
X21726Y17560D01*
X21694D01*
X21680Y17564D01*
X21603Y17664D01*
X21488Y17753D01*
X21354Y17808D01*
X21210Y17827D01*
X21066Y17808D01*
X20932Y17753D01*
X20817Y17664D01*
X20740Y17564D01*
X20726Y17560D01*
X20694D01*
X20680Y17564D01*
X20603Y17664D01*
X20488Y17753D01*
X20354Y17808D01*
X20210Y17827D01*
X20066Y17808D01*
X19932Y17753D01*
X19817Y17664D01*
X19740Y17564D01*
X19726Y17560D01*
X19694D01*
X19680Y17564D01*
X19603Y17664D01*
X19520Y17728D01*
Y18082D01*
X20078Y18640D01*
X23400D01*
X23480Y18650D01*
X23555Y18681D01*
X23619Y18731D01*
X25528Y20640D01*
X25602D01*
X25619Y20590D01*
X25558Y20543D01*
X25470Y20428D01*
X25415Y20294D01*
X25396Y20150D01*
X25415Y20006D01*
X25470Y19872D01*
X25558Y19757D01*
X25659Y19680D01*
X25663Y19666D01*
Y19634D01*
X25659Y19620D01*
X25558Y19543D01*
X25470Y19428D01*
X25415Y19294D01*
X25396Y19150D01*
X25415Y19006D01*
X25470Y18872D01*
X25558Y18757D01*
X25659Y18680D01*
X25663Y18666D01*
Y18634D01*
X25659Y18620D01*
X25558Y18543D01*
X25470Y18428D01*
X25415Y18294D01*
X25396Y18150D01*
X25415Y18006D01*
X25470Y17872D01*
X25558Y17757D01*
X25659Y17680D01*
X25663Y17666D01*
Y17634D01*
X25659Y17620D01*
X25558Y17543D01*
X25495Y17460D01*
X25350D01*
X25270Y17450D01*
X25195Y17419D01*
X25131Y17369D01*
X24222Y16460D01*
X16284D01*
X16273Y16476D01*
X16296Y16530D01*
X16354Y16537D01*
X16488Y16593D01*
X16603Y16681D01*
X16691Y16796D01*
X16747Y16931D01*
X16766Y17074D01*
Y17271D01*
X16747Y17415D01*
X16691Y17549D01*
X16603Y17664D01*
X16520Y17728D01*
Y18982D01*
X18228Y20690D01*
X23000D01*
X23080Y20700D01*
X23155Y20731D01*
X23219Y20781D01*
X25478Y23040D01*
X34972D01*
X38490Y19522D01*
Y7978D01*
X36972Y6460D01*
X36605D01*
X36542Y6543D01*
X36426Y6631D01*
X36292Y6687D01*
X36148Y6706D01*
X35952D01*
X35808Y6687D01*
X35674Y6631D01*
X35558Y6543D01*
X35470Y6428D01*
X35415Y6294D01*
X35396Y6150D01*
X35415Y6006D01*
X35470Y5872D01*
X35558Y5757D01*
X35674Y5669D01*
X35808Y5613D01*
X35952Y5594D01*
X36148D01*
X36292Y5613D01*
X36426Y5669D01*
X36542Y5757D01*
X36605Y5840D01*
X37100D01*
X37180Y5850D01*
X37255Y5881D01*
X37319Y5931D01*
X39019Y7631D01*
X39069Y7695D01*
X39100Y7770D01*
X39110Y7850D01*
Y19650D01*
X39100Y19730D01*
X39069Y19805D01*
X39019Y19869D01*
X35319Y23569D01*
X35255Y23619D01*
X35211Y23637D01*
X35180Y23650D01*
X35100Y23660D01*
D02*
G37*
G36*
X26700Y6701D02*
X25400D01*
Y5599D01*
X26700D01*
Y6701D01*
D02*
G37*
G36*
X37888Y2520D02*
X37702D01*
X37520Y2483D01*
X37348Y2412D01*
X37193Y2309D01*
X37061Y2177D01*
X36958Y2022D01*
X36887Y1850D01*
X36850Y1668D01*
Y1482D01*
X36887Y1299D01*
X36958Y1127D01*
X37061Y972D01*
X37193Y841D01*
X37348Y737D01*
X37520Y666D01*
X37702Y630D01*
X37888D01*
X38071Y666D01*
X38243Y737D01*
X38398Y841D01*
X38529Y972D01*
X38633Y1127D01*
X38704Y1299D01*
X38740Y1482D01*
Y1668D01*
X38704Y1850D01*
X38633Y2022D01*
X38529Y2177D01*
X38398Y2309D01*
X38243Y2412D01*
X38071Y2483D01*
X37888Y2520D01*
D02*
G37*
G36*
X1668D02*
X1482D01*
X1299Y2483D01*
X1127Y2412D01*
X972Y2309D01*
X841Y2177D01*
X737Y2022D01*
X666Y1850D01*
X630Y1668D01*
Y1482D01*
X666Y1299D01*
X737Y1127D01*
X841Y972D01*
X972Y841D01*
X1127Y737D01*
X1299Y666D01*
X1482Y630D01*
X1668D01*
X1850Y666D01*
X2022Y737D01*
X2177Y841D01*
X2309Y972D01*
X2412Y1127D01*
X2483Y1299D01*
X2520Y1482D01*
Y1668D01*
X2483Y1850D01*
X2412Y2022D01*
X2309Y2177D01*
X2177Y2309D01*
X2022Y2412D01*
X1850Y2483D01*
X1668Y2520D01*
D02*
G37*
%LPD*%
G36*
X16334Y19364D02*
X16210Y19110D01*
Y17605D01*
X16164Y17586D01*
X15400Y18350D01*
Y18500D01*
X15550Y18650D01*
X15900D01*
X15961Y18662D01*
X16013Y18697D01*
X16048Y18749D01*
X16060Y18810D01*
Y19100D01*
X16067Y19148D01*
X16080Y19180D01*
X16293Y19393D01*
X16334Y19364D01*
D02*
G37*
G36*
X15899Y15931D02*
X15963Y15881D01*
X16038Y15850D01*
X16118Y15840D01*
X24350D01*
X24430Y15850D01*
X24505Y15881D01*
X24569Y15931D01*
X25454Y16815D01*
X25517Y16811D01*
X25558Y16757D01*
X25659Y16680D01*
X25663Y16666D01*
Y16634D01*
X25659Y16620D01*
X25558Y16543D01*
X25495Y16460D01*
X25300D01*
X25220Y16450D01*
X25145Y16419D01*
X25081Y16369D01*
X24472Y15760D01*
X11578D01*
X10773Y16565D01*
Y16643D01*
X10801Y16659D01*
X10904Y16762D01*
X10977Y16887D01*
X11014Y17027D01*
Y17173D01*
X10977Y17313D01*
X10904Y17438D01*
X10801Y17541D01*
X10676Y17614D01*
X10578Y17640D01*
X10584Y17690D01*
X12342D01*
X12348Y17640D01*
X12250Y17614D01*
X12125Y17541D01*
X12022Y17438D01*
X11949Y17313D01*
X11912Y17173D01*
Y17027D01*
X11949Y16887D01*
X12022Y16762D01*
X12125Y16659D01*
X12250Y16586D01*
X12390Y16549D01*
X12536D01*
X12676Y16586D01*
X12801Y16659D01*
X12904Y16762D01*
X12977Y16887D01*
X13014Y17027D01*
Y17173D01*
X12977Y17313D01*
X12904Y17438D01*
X12801Y17541D01*
X12676Y17614D01*
X12578Y17640D01*
X12584Y17690D01*
X14139D01*
X15899Y15931D01*
D02*
G37*
D39*
X6300Y7529D02*
X9650Y10879D01*
Y14041D01*
X6300Y6650D02*
Y7529D01*
X35100Y23350D02*
X38800Y19650D01*
X25350Y23350D02*
X35100D01*
X38800Y7850D02*
Y19650D01*
X25157Y22257D02*
X35243D01*
X37993Y8143D02*
Y19507D01*
X35243Y22257D02*
X37993Y19507D01*
X25400Y20950D02*
X30450D01*
X35250Y16150D02*
X36050D01*
X30450Y20950D02*
X35250Y16150D01*
X34550Y19150D02*
X36050D01*
X16568Y4400D02*
X28550D01*
X15068Y5900D02*
X16568Y4400D01*
X28550D02*
X35250Y11100D01*
Y12150D02*
X36050D01*
X35250Y11100D02*
X36150D01*
X22177Y3600D02*
X28950D01*
X35979Y10079D02*
X36050Y10150D01*
X35429Y10079D02*
X35979D01*
X28950Y3600D02*
X35429Y10079D01*
X36150Y7100D02*
X36950D01*
X37993Y8143D01*
X37100Y6150D02*
X38800Y7850D01*
X36050Y6150D02*
X37100D01*
X23725Y6950D02*
X23955D01*
X20505D02*
X23725D01*
X23955D02*
X24155Y7150D01*
X26050D01*
X24243Y8050D02*
X25532D01*
X25539Y8057D01*
X25957D01*
X26050Y8150D01*
X23725Y7950D02*
X23818Y8043D01*
X24236D01*
X24243Y8050D01*
X25357Y10057D02*
X25957D01*
X23725Y8950D02*
X23808Y9033D01*
X24333D01*
X25357Y10057D01*
X23725Y9950D02*
X23808Y10033D01*
X24333D01*
X25404Y11104D01*
X26004D01*
X26050Y11150D01*
X23725Y10950D02*
X23808Y11033D01*
X24333D01*
X25404Y12104D01*
X26004D01*
X26050Y12150D01*
X23783Y13008D02*
X24358D01*
X25407Y14057D02*
X26107D01*
X24358Y13008D02*
X25407Y14057D01*
X26107D02*
X26150Y14100D01*
X23725Y12950D02*
X23783Y13008D01*
X23725Y11950D02*
X23783Y12008D01*
X24358D01*
X25429Y13079D01*
X25979D02*
X26050Y13150D01*
X25429Y13079D02*
X25979D01*
X25400Y15100D02*
X26250D01*
X23725Y13950D02*
X23808Y14033D01*
X24333D01*
X25400Y15100D01*
X25300Y16150D02*
X26050D01*
X11450Y15450D02*
X24600D01*
X25300Y16150D01*
X9400Y17050D02*
Y17500D01*
X25350Y17150D02*
X26050D01*
X16118Y16150D02*
X24350D01*
X25350Y17150D01*
X19950Y18950D02*
X23400D01*
X25400Y20950D01*
X19300Y19700D02*
X23450D01*
X25300Y21550D02*
X32150D01*
X23450Y19700D02*
X25300Y21550D01*
X19353Y20400D02*
X23300D01*
X25157Y22257D01*
X18100Y21000D02*
X23000D01*
X25350Y23350D01*
X25957Y10057D02*
X26050Y10150D01*
X19210Y17173D02*
Y18210D01*
X19950Y18950D01*
X18210Y18610D02*
X19300Y19700D01*
X18210Y17173D02*
Y18610D01*
X18043Y19090D02*
X19353Y20400D01*
X16210Y17173D02*
Y19110D01*
X18100Y21000D01*
X10463Y16437D02*
X11450Y15450D01*
X19718Y14800D02*
X20505Y14013D01*
X14179Y14800D02*
X19718D01*
X13419Y14041D02*
X14179Y14800D01*
X9400Y17500D02*
X9900Y18000D01*
X14268D01*
X8503Y17653D02*
X9350Y18500D01*
X16100D01*
X8463Y17100D02*
X8503Y17140D01*
Y17653D01*
X14268Y18000D02*
X16118Y16150D01*
X10463Y16437D02*
Y17100D01*
X4919Y13234D02*
X5004Y13150D01*
X6426D02*
X7317Y14041D01*
X5004Y13150D02*
X6426D01*
X6300Y6650D02*
X7050Y5900D01*
X9650Y14041D02*
X13419D01*
X7317D02*
X9650D01*
X7050Y5900D02*
X8350D01*
X8828Y6378D02*
Y7276D01*
X8350Y5900D02*
X8828Y6378D01*
X10828Y7276D02*
X10921Y7183D01*
Y6779D02*
Y7183D01*
Y6779D02*
X11250Y6450D01*
X15468D01*
X16818Y5100D01*
X9921Y6779D02*
X10800Y5900D01*
X15068D01*
X9828Y7276D02*
X9921Y7183D01*
Y6779D02*
Y7183D01*
X32150Y21550D02*
X34550Y19150D01*
X16818Y5100D02*
X28200D01*
X35250Y12150D01*
X20505Y6950D02*
Y11950D01*
X17725Y6950D02*
X20505D01*
X17725Y11950D02*
X20505D01*
Y14013D01*
D40*
X7828Y7276D02*
Y7928D01*
X9150Y9250D02*
X17222D01*
X7828Y7928D02*
X9150Y9250D01*
X12828Y7276D02*
X13702Y8150D01*
X17322D01*
X17522Y7950D01*
X17725D01*
X17522Y8950D02*
X17725D01*
X17222Y9250D02*
X17522Y8950D01*
D41*
X10350Y3850D02*
D03*
X9940Y20700D02*
D03*
D42*
X1598Y9800D02*
D03*
X4827D02*
D03*
D43*
X2425D02*
D03*
X3213D02*
D03*
X4000D02*
D03*
D44*
X2218Y12750D02*
D03*
D45*
X7317Y14041D02*
D03*
X13419D02*
D03*
X7828Y7276D02*
D03*
X8828D02*
D03*
X9828D02*
D03*
X10828D02*
D03*
X11828D02*
D03*
X12828D02*
D03*
X12463Y17100D02*
D03*
X11463D02*
D03*
X10463D02*
D03*
X9463D02*
D03*
X8463D02*
D03*
X7463D02*
D03*
X4919Y13234D02*
D03*
Y12250D02*
D03*
D46*
X7317Y10300D02*
D03*
X13419D02*
D03*
D47*
X17725Y13950D02*
D03*
D48*
X23725Y6950D02*
D03*
Y7950D02*
D03*
Y8950D02*
D03*
Y9950D02*
D03*
Y10950D02*
D03*
Y11950D02*
D03*
Y12950D02*
D03*
Y13950D02*
D03*
X17725Y12950D02*
D03*
Y11950D02*
D03*
Y10950D02*
D03*
Y9950D02*
D03*
Y8950D02*
D03*
Y7950D02*
D03*
Y6950D02*
D03*
D49*
X19273Y3600D02*
D03*
D50*
X22177Y3600D02*
D03*
D51*
X22810Y22223D02*
D03*
X16710D02*
D03*
D52*
X23210Y17173D02*
D03*
X22210D02*
D03*
X21210D02*
D03*
X20210D02*
D03*
X19210D02*
D03*
X18210D02*
D03*
X17210D02*
D03*
X16210D02*
D03*
D53*
X36050Y17150D02*
D03*
Y14150D02*
D03*
Y15150D02*
D03*
Y16150D02*
D03*
Y13150D02*
D03*
Y12150D02*
D03*
Y9150D02*
D03*
Y8150D02*
D03*
Y7150D02*
D03*
Y6150D02*
D03*
Y20150D02*
D03*
Y18150D02*
D03*
Y10150D02*
D03*
Y11150D02*
D03*
Y19150D02*
D03*
X26050Y12150D02*
D03*
Y10150D02*
D03*
Y11150D02*
D03*
Y13150D02*
D03*
Y14150D02*
D03*
Y15150D02*
D03*
Y16150D02*
D03*
Y17150D02*
D03*
Y18150D02*
D03*
Y19150D02*
D03*
Y20150D02*
D03*
Y8150D02*
D03*
Y9150D02*
D03*
Y7150D02*
D03*
D54*
Y6150D02*
D03*
D55*
X37795Y1575D02*
D03*
X1575D02*
D03*
X37795Y23228D02*
D03*
X1575D02*
D03*
D56*
X6583Y8600D02*
X7317Y9334D01*
Y10300D01*
X3850Y8600D02*
X6583D01*
X3230Y9220D02*
X3850Y8600D01*
X3213Y9800D02*
X3230Y9783D01*
Y9220D02*
Y9783D01*
X4013Y10463D02*
X4919Y11369D01*
X4000Y9800D02*
X4013Y9813D01*
Y10463D01*
X4919Y11369D02*
Y12250D01*
X13419Y10130D02*
Y11601D01*
X15768Y13950D01*
X17725D01*
M02*
