G04*
G04 #@! TF.GenerationSoftware,Altium Limited,Altium Designer,23.7.1 (13)*
G04*
G04 Layer_Color=8388736*
%FSLAX24Y24*%
%MOIN*%
G70*
G04*
G04 #@! TF.SameCoordinates,462104AE-C5C4-45F5-994C-927CF5565F6C*
G04*
G04*
G04 #@! TF.FilePolarity,Negative*
G04*
G01*
G75*
%ADD24R,0.7954X0.3230*%
%ADD25R,0.0671X0.1064*%
%ADD26O,0.0671X0.1064*%
%ADD27R,0.2836X0.3623*%
%ADD28C,0.0867*%
%ADD29R,0.0867X0.0867*%
%ADD30R,0.1064X0.0867*%
%ADD31O,0.1064X0.0867*%
%ADD32C,0.1064*%
%ADD33R,0.1064X0.1064*%
%ADD34C,0.1340*%
%ADD35O,0.0867X0.1064*%
%ADD36O,0.1064X0.0867*%
%ADD37R,0.1064X0.0867*%
%ADD38C,0.1655*%
D24*
X10350Y3850D02*
D03*
X9940Y20700D02*
D03*
D25*
X1598Y9800D02*
D03*
X4827D02*
D03*
D26*
X2425D02*
D03*
X3213D02*
D03*
X4000D02*
D03*
D27*
X2218Y12750D02*
D03*
D28*
X7317Y14041D02*
D03*
X13419D02*
D03*
X7828Y7276D02*
D03*
X8828D02*
D03*
X9828D02*
D03*
X10828D02*
D03*
X11828D02*
D03*
X12828D02*
D03*
X12463Y17100D02*
D03*
X11463D02*
D03*
X10463D02*
D03*
X9463D02*
D03*
X8463D02*
D03*
X7463D02*
D03*
X4919Y13234D02*
D03*
Y12250D02*
D03*
D29*
X7317Y10300D02*
D03*
X13419D02*
D03*
D30*
X17725Y13950D02*
D03*
D31*
X23725Y6950D02*
D03*
Y7950D02*
D03*
Y8950D02*
D03*
Y9950D02*
D03*
Y10950D02*
D03*
Y11950D02*
D03*
Y12950D02*
D03*
Y13950D02*
D03*
X17725Y12950D02*
D03*
Y11950D02*
D03*
Y10950D02*
D03*
Y9950D02*
D03*
Y8950D02*
D03*
Y7950D02*
D03*
Y6950D02*
D03*
D32*
X19273Y3600D02*
D03*
D33*
X22177Y3600D02*
D03*
D34*
X22810Y22223D02*
D03*
X16710D02*
D03*
D35*
X23210Y17173D02*
D03*
X22210D02*
D03*
X21210D02*
D03*
X20210D02*
D03*
X19210D02*
D03*
X18210D02*
D03*
X17210D02*
D03*
X16210D02*
D03*
D36*
X36050Y17150D02*
D03*
Y14150D02*
D03*
Y15150D02*
D03*
Y16150D02*
D03*
Y13150D02*
D03*
Y12150D02*
D03*
Y9150D02*
D03*
Y8150D02*
D03*
Y7150D02*
D03*
Y6150D02*
D03*
Y20150D02*
D03*
Y18150D02*
D03*
Y10150D02*
D03*
Y11150D02*
D03*
Y19150D02*
D03*
X26050Y12150D02*
D03*
Y10150D02*
D03*
Y11150D02*
D03*
Y13150D02*
D03*
Y14150D02*
D03*
Y15150D02*
D03*
Y16150D02*
D03*
Y17150D02*
D03*
Y18150D02*
D03*
Y19150D02*
D03*
Y20150D02*
D03*
Y8150D02*
D03*
Y9150D02*
D03*
Y7150D02*
D03*
D37*
Y6150D02*
D03*
D38*
X37795Y1575D02*
D03*
X1575D02*
D03*
X37795Y23228D02*
D03*
X1575D02*
D03*
M02*
