G04*
G04 #@! TF.GenerationSoftware,Altium Limited,Altium Designer,23.10.1 (27)*
G04*
G04 Layer_Color=2752767*
%FSLAX24Y24*%
%MOIN*%
G70*
G04*
G04 #@! TF.SameCoordinates,035D824A-8269-4E4D-BA6D-B56C25CEACC5*
G04*
G04*
G04 #@! TF.FilePolarity,Positive*
G04*
G01*
G75*
%ADD16C,0.0050*%
%ADD59C,0.0067*%
D16*
X12600Y7150D02*
Y7550D01*
X13000D01*
Y7150D01*
X12600D01*
X11600D02*
Y7550D01*
X12000D01*
Y7150D01*
X11600D01*
X10600D02*
Y7550D01*
X11000D01*
Y7150D01*
X10600D01*
X9600D02*
Y7550D01*
X10000D01*
Y7150D01*
X9600D01*
X8600D02*
Y7550D01*
X9000D01*
Y7150D01*
X8600D01*
X7600D02*
Y7550D01*
X8000D01*
Y7150D01*
X7600D01*
X7278Y16883D02*
Y17283D01*
X7678D01*
Y16883D01*
X7278D01*
X8278D02*
Y17283D01*
X8678D01*
Y16883D01*
X8278D01*
X9278D02*
Y17283D01*
X9678D01*
Y16883D01*
X9278D01*
X10278D02*
Y17283D01*
X10678D01*
Y16883D01*
X10278D01*
X11278D02*
Y17283D01*
X11678D01*
Y16883D01*
X11278D01*
X12278D02*
Y17283D01*
X12678D01*
Y16883D01*
X12278D01*
X10350Y3650D02*
X10150Y4050D01*
X10550D01*
X10350Y3650D01*
X1498Y9700D02*
Y9600D01*
X1698D01*
Y9700D01*
X1798D01*
Y9900D01*
X1698D01*
Y10000D01*
X1498D01*
Y9900D01*
X1398D01*
Y9700D01*
X1498D01*
X4727D02*
Y9600D01*
X4927D01*
Y9700D01*
X5027D01*
Y9900D01*
X4927D01*
Y10000D01*
X4727D01*
Y9900D01*
X4627D01*
Y9700D01*
X4727D01*
X2225Y9600D02*
Y10000D01*
X2625D01*
Y9600D01*
X2225D01*
X3013D02*
Y10000D01*
X3413D01*
Y9600D01*
X3013D01*
X3800D02*
Y10000D01*
X4200D01*
Y9600D01*
X3800D01*
X2018Y12550D02*
X2118Y12750D01*
X2018Y12950D01*
X2218Y12850D01*
X2418Y12950D01*
X2318Y12750D01*
X2418Y12550D01*
X2218Y12650D01*
X2018Y12550D01*
X7117Y13841D02*
Y14241D01*
X7517D01*
Y13841D01*
X7117D01*
Y10100D02*
Y10500D01*
X7517D01*
Y10100D01*
X7117D01*
X13219Y13841D02*
Y14241D01*
X13619D01*
Y13841D01*
X13219D01*
Y10100D02*
Y10500D01*
X13619D01*
Y10100D01*
X13219D01*
X4719Y13034D02*
Y13434D01*
X5119D01*
Y13034D01*
X4719D01*
Y12050D02*
Y12450D01*
X5119D01*
Y12050D01*
X4719D01*
X17525Y13750D02*
Y14150D01*
X17925D01*
Y13750D01*
X17525D01*
X23525Y6750D02*
Y7150D01*
X23925D01*
Y6750D01*
X23525D01*
Y7750D02*
Y8150D01*
X23925D01*
Y7750D01*
X23525D01*
Y8750D02*
Y9150D01*
X23925D01*
Y8750D01*
X23525D01*
Y9750D02*
Y10150D01*
X23925D01*
Y9750D01*
X23525D01*
Y10750D02*
Y11150D01*
X23925D01*
Y10750D01*
X23525D01*
Y11750D02*
Y12150D01*
X23925D01*
Y11750D01*
X23525D01*
Y12750D02*
Y13150D01*
X23925D01*
Y12750D01*
X23525D01*
Y13750D02*
Y14150D01*
X23925D01*
Y13750D01*
X23525D01*
X17525Y12750D02*
Y13150D01*
X17925D01*
Y12750D01*
X17525D01*
Y11750D02*
Y12150D01*
X17925D01*
Y11750D01*
X17525D01*
Y10750D02*
Y11150D01*
X17925D01*
Y10750D01*
X17525D01*
Y9750D02*
Y10150D01*
X17925D01*
Y9750D01*
X17525D01*
Y8750D02*
Y9150D01*
X17925D01*
Y8750D01*
X17525D01*
Y7750D02*
Y8150D01*
X17925D01*
Y7750D01*
X17525D01*
Y6750D02*
Y7150D01*
X17925D01*
Y6750D01*
X17525D01*
X19073Y3400D02*
Y3800D01*
X19473D01*
Y3400D01*
X19073D01*
X21977Y3400D02*
Y3800D01*
X22377D01*
Y3400D01*
X21977D01*
X23010Y16973D02*
Y17373D01*
X23410D01*
Y16973D01*
X23010D01*
X22010D02*
Y17373D01*
X22410D01*
Y16973D01*
X22010D01*
X21010D02*
Y17373D01*
X21410D01*
Y16973D01*
X21010D01*
X20010D02*
Y17373D01*
X20410D01*
Y16973D01*
X20010D01*
X19010D02*
Y17373D01*
X19410D01*
Y16973D01*
X19010D01*
X18010D02*
Y17373D01*
X18410D01*
Y16973D01*
X18010D01*
X17010D02*
Y17373D01*
X17410D01*
Y16973D01*
X17010D01*
X16010D02*
Y17373D01*
X16410D01*
Y16973D01*
X16010D01*
X9940Y20500D02*
X9740Y20900D01*
X10140D01*
X9940Y20500D01*
X35850Y16950D02*
Y17350D01*
X36250D01*
Y16950D01*
X35850D01*
Y13950D02*
Y14350D01*
X36250D01*
Y13950D01*
X35850D01*
Y14950D02*
Y15350D01*
X36250D01*
Y14950D01*
X35850D01*
Y15950D02*
Y16350D01*
X36250D01*
Y15950D01*
X35850D01*
Y12950D02*
Y13350D01*
X36250D01*
Y12950D01*
X35850D01*
Y11950D02*
Y12350D01*
X36250D01*
Y11950D01*
X35850D01*
Y8950D02*
Y9350D01*
X36250D01*
Y8950D01*
X35850D01*
Y7950D02*
Y8350D01*
X36250D01*
Y7950D01*
X35850D01*
Y6950D02*
Y7350D01*
X36250D01*
Y6950D01*
X35850D01*
Y5950D02*
Y6350D01*
X36250D01*
Y5950D01*
X35850D01*
Y19950D02*
Y20350D01*
X36250D01*
Y19950D01*
X35850D01*
Y17950D02*
Y18350D01*
X36250D01*
Y17950D01*
X35850D01*
Y9950D02*
Y10350D01*
X36250D01*
Y9950D01*
X35850D01*
Y10950D02*
Y11350D01*
X36250D01*
Y10950D01*
X35850D01*
Y18950D02*
Y19350D01*
X36250D01*
Y18950D01*
X35850D01*
X25850Y11950D02*
Y12350D01*
X26250D01*
Y11950D01*
X25850D01*
Y9950D02*
Y10350D01*
X26250D01*
Y9950D01*
X25850D01*
Y10950D02*
Y11350D01*
X26250D01*
Y10950D01*
X25850D01*
Y12950D02*
Y13350D01*
X26250D01*
Y12950D01*
X25850D01*
Y13950D02*
Y14350D01*
X26250D01*
Y13950D01*
X25850D01*
Y14950D02*
Y15350D01*
X26250D01*
Y14950D01*
X25850D01*
Y15950D02*
Y16350D01*
X26250D01*
Y15950D01*
X25850D01*
Y16950D02*
Y17350D01*
X26250D01*
Y16950D01*
X25850D01*
Y17950D02*
Y18350D01*
X26250D01*
Y17950D01*
X25850D01*
Y18950D02*
Y19350D01*
X26250D01*
Y18950D01*
X25850D01*
Y19950D02*
Y20350D01*
X26250D01*
Y19950D01*
X25850D01*
Y5950D02*
Y6350D01*
X26250D01*
Y5950D01*
X25850D01*
Y7950D02*
Y8350D01*
X26250D01*
Y7950D01*
X25850D01*
Y8950D02*
Y9350D01*
X26250D01*
Y8950D01*
X25850D01*
Y6950D02*
Y7350D01*
X26250D01*
Y6950D01*
X25850D01*
X37795Y1375D02*
X37895Y1475D01*
X37995D01*
X37895Y1575D01*
X37995Y1675D01*
X37895D01*
X37795Y1775D01*
X37695Y1675D01*
X37595D01*
X37695Y1575D01*
X37595Y1475D01*
X37695D01*
X37795Y1375D01*
X1575D02*
X1675Y1475D01*
X1775D01*
X1675Y1575D01*
X1775Y1675D01*
X1675D01*
X1575Y1775D01*
X1475Y1675D01*
X1375D01*
X1475Y1575D01*
X1375Y1475D01*
X1475D01*
X1575Y1375D01*
X37795Y23028D02*
X37895Y23128D01*
X37995D01*
X37895Y23228D01*
X37995Y23328D01*
X37895D01*
X37795Y23428D01*
X37695Y23328D01*
X37595D01*
X37695Y23228D01*
X37595Y23128D01*
X37695D01*
X37795Y23028D01*
X1575D02*
X1675Y23128D01*
X1775D01*
X1675Y23228D01*
X1775Y23328D01*
X1675D01*
X1575Y23428D01*
X1475Y23328D01*
X1375D01*
X1475Y23228D01*
X1375Y23128D01*
X1475D01*
X1575Y23028D01*
D59*
X23010Y22223D02*
G03*
X23010Y22223I-200J0D01*
G01*
X16910D02*
G03*
X16910Y22223I-200J0D01*
G01*
M02*
