G04*
G04 #@! TF.GenerationSoftware,Altium Limited,Altium Designer,23.10.1 (27)*
G04*
G04 Layer_Physical_Order=1*
G04 Layer_Color=255*
%FSLAX24Y24*%
%MOIN*%
G70*
G04*
G04 #@! TF.SameCoordinates,035D824A-8269-4E4D-BA6D-B56C25CEACC5*
G04*
G04*
G04 #@! TF.FilePolarity,Positive*
G04*
G01*
G75*
%ADD40C,0.0300*%
%ADD41C,0.0400*%
%ADD42C,0.0787*%
%ADD43R,0.7874X0.3150*%
%ADD44R,0.0591X0.0984*%
%ADD45O,0.0591X0.0984*%
%ADD46R,0.2756X0.3543*%
%ADD47R,0.0787X0.0787*%
%ADD48R,0.0984X0.0787*%
%ADD49O,0.0984X0.0787*%
%ADD50C,0.0984*%
%ADD51R,0.0984X0.0984*%
%ADD52C,0.1260*%
%ADD53O,0.0787X0.0984*%
%ADD54O,0.0984X0.0787*%
%ADD55R,0.0984X0.0787*%
%ADD56C,0.1575*%
G36*
X38192Y24800D02*
X38192Y24800D01*
X38268Y24800D01*
X38419Y24780D01*
X38565Y24741D01*
X38705Y24683D01*
X38837Y24607D01*
X38957Y24515D01*
X39065Y24407D01*
X39157Y24287D01*
X39233Y24155D01*
X39291Y24015D01*
X39330Y23869D01*
X39350Y23718D01*
X39350Y23642D01*
X39350Y1161D01*
X39350Y1161D01*
Y1085D01*
X39330Y934D01*
X39291Y787D01*
X39232Y646D01*
X39156Y515D01*
X39064Y394D01*
X38956Y286D01*
X38835Y194D01*
X38704Y117D01*
X38563Y59D01*
X38416Y20D01*
X38265Y0D01*
X1104D01*
X950Y20D01*
X801Y60D01*
X658Y120D01*
X524Y197D01*
X401Y291D01*
X291Y401D01*
X197Y524D01*
X120Y658D01*
X60Y801D01*
X20Y950D01*
X0Y1104D01*
Y1181D01*
Y23622D01*
X0Y23699D01*
X20Y23852D01*
X60Y24002D01*
X119Y24144D01*
X196Y24278D01*
X290Y24400D01*
X400Y24510D01*
X522Y24604D01*
X656Y24681D01*
X799Y24740D01*
X948Y24780D01*
X1101Y24800D01*
X1178Y24800D01*
X38192Y24800D01*
X38192Y24800D01*
D02*
G37*
%LPC*%
G36*
X37888Y24173D02*
X37702D01*
X37520Y24137D01*
X37348Y24066D01*
X37193Y23962D01*
X37061Y23831D01*
X36958Y23676D01*
X36887Y23504D01*
X36850Y23321D01*
Y23135D01*
X36887Y22953D01*
X36958Y22781D01*
X37061Y22626D01*
X37193Y22494D01*
X37348Y22391D01*
X37520Y22320D01*
X37702Y22283D01*
X37888D01*
X38071Y22320D01*
X38243Y22391D01*
X38398Y22494D01*
X38529Y22626D01*
X38633Y22781D01*
X38704Y22953D01*
X38740Y23135D01*
Y23321D01*
X38704Y23504D01*
X38633Y23676D01*
X38529Y23831D01*
X38398Y23962D01*
X38243Y24066D01*
X38071Y24137D01*
X37888Y24173D01*
D02*
G37*
G36*
X1668D02*
X1482D01*
X1299Y24137D01*
X1127Y24066D01*
X972Y23962D01*
X841Y23831D01*
X737Y23676D01*
X666Y23504D01*
X630Y23321D01*
Y23135D01*
X666Y22953D01*
X737Y22781D01*
X841Y22626D01*
X972Y22494D01*
X1127Y22391D01*
X1299Y22320D01*
X1482Y22283D01*
X1668D01*
X1850Y22320D01*
X2022Y22391D01*
X2177Y22494D01*
X2309Y22626D01*
X2412Y22781D01*
X2483Y22953D01*
X2520Y23135D01*
Y23321D01*
X2483Y23504D01*
X2412Y23676D01*
X2309Y23831D01*
X2177Y23962D01*
X2022Y24066D01*
X1850Y24137D01*
X1668Y24173D01*
D02*
G37*
G36*
X22888Y23010D02*
X22732D01*
X22580Y22980D01*
X22437Y22921D01*
X22308Y22834D01*
X22198Y22725D01*
X22112Y22596D01*
X22053Y22453D01*
X22023Y22300D01*
Y22145D01*
X22053Y21993D01*
X22112Y21850D01*
X22198Y21721D01*
X22308Y21611D01*
X22437Y21525D01*
X22580Y21466D01*
X22732Y21435D01*
X22888D01*
X23040Y21466D01*
X23183Y21525D01*
X23312Y21611D01*
X23422Y21721D01*
X23508Y21850D01*
X23567Y21993D01*
X23597Y22145D01*
Y22300D01*
X23567Y22453D01*
X23508Y22596D01*
X23422Y22725D01*
X23312Y22834D01*
X23183Y22921D01*
X23040Y22980D01*
X22888Y23010D01*
D02*
G37*
G36*
X16788D02*
X16632D01*
X16480Y22980D01*
X16337Y22921D01*
X16208Y22834D01*
X16098Y22725D01*
X16012Y22596D01*
X15953Y22453D01*
X15923Y22300D01*
Y22145D01*
X15953Y21993D01*
X16012Y21850D01*
X16098Y21721D01*
X16208Y21611D01*
X16337Y21525D01*
X16480Y21466D01*
X16632Y21435D01*
X16788D01*
X16940Y21466D01*
X17083Y21525D01*
X17212Y21611D01*
X17322Y21721D01*
X17408Y21850D01*
X17467Y21993D01*
X17497Y22145D01*
Y22300D01*
X17467Y22453D01*
X17408Y22596D01*
X17322Y22725D01*
X17212Y22834D01*
X17083Y22921D01*
X16940Y22980D01*
X16788Y23010D01*
D02*
G37*
G36*
X14035Y22432D02*
X5846D01*
Y18968D01*
X14035D01*
Y22432D01*
D02*
G37*
G36*
X23210Y17827D02*
X23066Y17808D01*
X22932Y17753D01*
X22817Y17664D01*
X22740Y17564D01*
X22726Y17560D01*
X22694D01*
X22680Y17564D01*
X22603Y17664D01*
X22488Y17753D01*
X22354Y17808D01*
X22210Y17827D01*
X22066Y17808D01*
X21932Y17753D01*
X21817Y17664D01*
X21740Y17564D01*
X21726Y17560D01*
X21694D01*
X21680Y17564D01*
X21603Y17664D01*
X21488Y17753D01*
X21354Y17808D01*
X21210Y17827D01*
X21066Y17808D01*
X20932Y17753D01*
X20817Y17664D01*
X20740Y17564D01*
X20726Y17560D01*
X20694D01*
X20680Y17564D01*
X20603Y17664D01*
X20488Y17753D01*
X20354Y17808D01*
X20210Y17827D01*
X20066Y17808D01*
X19932Y17753D01*
X19817Y17664D01*
X19740Y17564D01*
X19726Y17560D01*
X19694D01*
X19680Y17564D01*
X19603Y17664D01*
X19488Y17753D01*
X19354Y17808D01*
X19210Y17827D01*
X19066Y17808D01*
X18932Y17753D01*
X18817Y17664D01*
X18740Y17564D01*
X18726Y17560D01*
X18694D01*
X18680Y17564D01*
X18603Y17664D01*
X18488Y17753D01*
X18354Y17808D01*
X18210Y17827D01*
X18066Y17808D01*
X17932Y17753D01*
X17817Y17664D01*
X17729Y17549D01*
X17673Y17415D01*
X17654Y17271D01*
Y17074D01*
X17673Y16931D01*
X17729Y16796D01*
X17817Y16681D01*
X17932Y16593D01*
X18066Y16537D01*
X18210Y16518D01*
X18354Y16537D01*
X18488Y16593D01*
X18603Y16681D01*
X18680Y16782D01*
X18694Y16786D01*
X18726D01*
X18740Y16782D01*
X18817Y16681D01*
X18932Y16593D01*
X19066Y16537D01*
X19210Y16518D01*
X19354Y16537D01*
X19488Y16593D01*
X19603Y16681D01*
X19680Y16782D01*
X19694Y16786D01*
X19726D01*
X19740Y16782D01*
X19817Y16681D01*
X19932Y16593D01*
X20066Y16537D01*
X20210Y16518D01*
X20354Y16537D01*
X20488Y16593D01*
X20603Y16681D01*
X20680Y16782D01*
X20694Y16786D01*
X20726D01*
X20740Y16782D01*
X20817Y16681D01*
X20932Y16593D01*
X21066Y16537D01*
X21210Y16518D01*
X21354Y16537D01*
X21488Y16593D01*
X21603Y16681D01*
X21680Y16782D01*
X21694Y16786D01*
X21726D01*
X21740Y16782D01*
X21817Y16681D01*
X21932Y16593D01*
X22066Y16537D01*
X22210Y16518D01*
X22354Y16537D01*
X22488Y16593D01*
X22603Y16681D01*
X22680Y16782D01*
X22694Y16786D01*
X22726D01*
X22740Y16782D01*
X22817Y16681D01*
X22932Y16593D01*
X23066Y16537D01*
X23210Y16518D01*
X23354Y16537D01*
X23488Y16593D01*
X23603Y16681D01*
X23691Y16796D01*
X23747Y16931D01*
X23766Y17074D01*
Y17271D01*
X23747Y17415D01*
X23691Y17549D01*
X23603Y17664D01*
X23488Y17753D01*
X23354Y17808D01*
X23210Y17827D01*
D02*
G37*
G36*
X7900Y18660D02*
X7100D01*
X7020Y18650D01*
X6945Y18619D01*
X6881Y18569D01*
X5631Y17319D01*
X5581Y17255D01*
X5550Y17180D01*
X5540Y17100D01*
Y13900D01*
X5550Y13820D01*
X5581Y13745D01*
X5631Y13681D01*
X11462Y7849D01*
X11462Y7791D01*
X11359Y7688D01*
X11325Y7630D01*
X11275D01*
X11241Y7688D01*
X11138Y7791D01*
X11013Y7864D01*
X10873Y7901D01*
X10727D01*
X10587Y7864D01*
X10462Y7791D01*
X10359Y7688D01*
X10325Y7630D01*
X10275D01*
X10241Y7688D01*
X10138Y7791D01*
X10013Y7864D01*
X9873Y7901D01*
X9727D01*
X9587Y7864D01*
X9462Y7791D01*
X9359Y7688D01*
X9286Y7563D01*
X9249Y7423D01*
Y7277D01*
X9286Y7137D01*
X9359Y7012D01*
X9462Y6909D01*
X9587Y6836D01*
X9727Y6799D01*
X9873D01*
X10013Y6836D01*
X10138Y6909D01*
X10241Y7012D01*
X10275Y7070D01*
X10325D01*
X10359Y7012D01*
X10462Y6909D01*
X10587Y6836D01*
X10727Y6799D01*
X10873D01*
X11013Y6836D01*
X11138Y6909D01*
X11241Y7012D01*
X11275Y7070D01*
X11325D01*
X11359Y7012D01*
X11462Y6909D01*
X11587Y6836D01*
X11727Y6799D01*
X11873D01*
X12013Y6836D01*
X12138Y6909D01*
X12241Y7012D01*
X12275Y7070D01*
X12325D01*
X12359Y7012D01*
X12462Y6909D01*
X12587Y6836D01*
X12727Y6799D01*
X12873D01*
X13013Y6836D01*
X13138Y6909D01*
X13241Y7012D01*
X13314Y7137D01*
X13351Y7277D01*
Y7423D01*
X13314Y7563D01*
X13241Y7688D01*
X13138Y7791D01*
X13013Y7864D01*
X12873Y7901D01*
X12727D01*
X12587Y7864D01*
X12462Y7791D01*
X12359Y7688D01*
X12325Y7630D01*
X12275D01*
X12241Y7688D01*
X12138Y7791D01*
X12110Y7807D01*
Y7950D01*
X12100Y8030D01*
X12069Y8105D01*
X12019Y8169D01*
X6160Y14028D01*
Y16972D01*
X7228Y18040D01*
X7772D01*
X8153Y17659D01*
Y17532D01*
X8139Y17524D01*
X8037Y17421D01*
X8003Y17362D01*
X7953D01*
X7919Y17421D01*
X7816Y17524D01*
X7690Y17596D01*
X7550Y17634D01*
X7405D01*
X7265Y17596D01*
X7139Y17524D01*
X7036Y17421D01*
X6964Y17295D01*
X6926Y17155D01*
Y17010D01*
X6964Y16870D01*
X7036Y16744D01*
X7102Y16678D01*
Y15237D01*
X7115Y15144D01*
X7151Y15057D01*
X7208Y14982D01*
X10117Y12073D01*
X10191Y12016D01*
X10278Y11980D01*
X10372Y11968D01*
X13590D01*
X15963Y9595D01*
X16038Y9538D01*
X16125Y9502D01*
X16218Y9489D01*
X17321D01*
X17334Y9480D01*
X17338Y9466D01*
Y9434D01*
X17334Y9420D01*
X17234Y9343D01*
X17145Y9228D01*
X17090Y9094D01*
X17071Y8950D01*
X17090Y8806D01*
X17145Y8672D01*
X17234Y8557D01*
X17334Y8480D01*
X17338Y8466D01*
Y8434D01*
X17334Y8420D01*
X17234Y8343D01*
X17145Y8228D01*
X17090Y8094D01*
X17071Y7950D01*
X17090Y7806D01*
X17145Y7672D01*
X17234Y7557D01*
X17349Y7469D01*
X17483Y7413D01*
X17627Y7394D01*
X17823D01*
X17967Y7413D01*
X18101Y7469D01*
X18217Y7557D01*
X18305Y7672D01*
X18360Y7806D01*
X18379Y7950D01*
X18360Y8094D01*
X18305Y8228D01*
X18217Y8343D01*
X18116Y8420D01*
X18112Y8434D01*
Y8466D01*
X18116Y8480D01*
X18217Y8557D01*
X18305Y8672D01*
X18360Y8806D01*
X18379Y8950D01*
X18360Y9094D01*
X18305Y9228D01*
X18217Y9343D01*
X18116Y9420D01*
X18112Y9434D01*
Y9466D01*
X18116Y9480D01*
X18217Y9557D01*
X18305Y9672D01*
X18360Y9806D01*
X18379Y9950D01*
X18360Y10094D01*
X18305Y10228D01*
X18217Y10343D01*
X18116Y10420D01*
X18112Y10434D01*
Y10466D01*
X18116Y10480D01*
X18217Y10557D01*
X18305Y10672D01*
X18360Y10806D01*
X18379Y10950D01*
X18360Y11094D01*
X18305Y11228D01*
X18217Y11343D01*
X18101Y11431D01*
X17967Y11487D01*
X17823Y11506D01*
X17627D01*
X17483Y11487D01*
X17349Y11431D01*
X17234Y11343D01*
X17170Y11261D01*
X16499D01*
X15479Y12281D01*
Y15682D01*
X15466Y15775D01*
X15430Y15862D01*
X15373Y15937D01*
X13955Y17355D01*
X13880Y17412D01*
X13793Y17448D01*
X13700Y17461D01*
X12879D01*
X12816Y17524D01*
X12690Y17596D01*
X12550Y17634D01*
X12405D01*
X12265Y17596D01*
X12139Y17524D01*
X12036Y17421D01*
X11964Y17295D01*
X11926Y17155D01*
Y17010D01*
X11964Y16870D01*
X12036Y16744D01*
X12139Y16642D01*
X12265Y16569D01*
X12405Y16531D01*
X12550D01*
X12690Y16569D01*
X12816Y16642D01*
X12914Y16739D01*
X13551D01*
X14757Y15533D01*
Y12132D01*
X14770Y12039D01*
X14806Y11952D01*
X14863Y11877D01*
X16095Y10645D01*
X16170Y10588D01*
X16257Y10552D01*
X16350Y10539D01*
X17256D01*
X17334Y10480D01*
X17338Y10466D01*
Y10434D01*
X17334Y10420D01*
X17234Y10343D01*
X17145Y10228D01*
X17138Y10211D01*
X16367D01*
X13995Y12583D01*
X13920Y12641D01*
X13833Y12677D01*
X13740Y12689D01*
X10521D01*
X7824Y15386D01*
Y16649D01*
X7919Y16744D01*
X7953Y16803D01*
X8003D01*
X8037Y16744D01*
X8139Y16642D01*
X8265Y16569D01*
X8405Y16531D01*
X8550D01*
X8690Y16569D01*
X8816Y16642D01*
X8919Y16744D01*
X8953Y16803D01*
X9003D01*
X9036Y16744D01*
X9139Y16642D01*
X9265Y16569D01*
X9405Y16531D01*
X9550D01*
X9690Y16569D01*
X9816Y16642D01*
X9919Y16744D01*
X9953Y16803D01*
X10003D01*
X10036Y16744D01*
X10139Y16642D01*
X10265Y16569D01*
X10405Y16531D01*
X10550D01*
X10690Y16569D01*
X10816Y16642D01*
X10919Y16744D01*
X10991Y16870D01*
X11029Y17010D01*
Y17155D01*
X10991Y17295D01*
X10919Y17421D01*
X10816Y17524D01*
X10690Y17596D01*
X10550Y17634D01*
X10405D01*
X10265Y17596D01*
X10139Y17524D01*
X10036Y17421D01*
X10003Y17362D01*
X9953D01*
X9919Y17421D01*
X9816Y17524D01*
X9690Y17596D01*
X9550Y17634D01*
X9405D01*
X9265Y17596D01*
X9139Y17524D01*
X9036Y17421D01*
X9003Y17362D01*
X8953D01*
X8919Y17421D01*
X8816Y17524D01*
X8773Y17548D01*
Y17787D01*
X8763Y17867D01*
X8732Y17942D01*
X8682Y18006D01*
X8119Y18569D01*
X8055Y18619D01*
X8011Y18637D01*
X7980Y18650D01*
X7900Y18660D01*
D02*
G37*
G36*
X16210Y17827D02*
X16066Y17808D01*
X15932Y17753D01*
X15817Y17664D01*
X15729Y17549D01*
X15673Y17415D01*
X15654Y17271D01*
Y17074D01*
X15673Y16931D01*
X15729Y16796D01*
X15817Y16681D01*
X15890Y16625D01*
Y13650D01*
X15900Y13570D01*
X15931Y13495D01*
X15981Y13431D01*
X16681Y12731D01*
X16745Y12681D01*
X16820Y12650D01*
X16900Y12640D01*
X17170D01*
X17234Y12557D01*
X17349Y12469D01*
X17483Y12413D01*
X17627Y12394D01*
X17823D01*
X17967Y12413D01*
X18101Y12469D01*
X18217Y12557D01*
X18305Y12672D01*
X18360Y12806D01*
X18379Y12950D01*
X18360Y13094D01*
X18305Y13228D01*
X18217Y13343D01*
X18206Y13351D01*
X18222Y13399D01*
X18375D01*
Y14501D01*
X17075D01*
Y13399D01*
X17228D01*
X17244Y13351D01*
X17234Y13343D01*
X17170Y13260D01*
X17028D01*
X16510Y13778D01*
Y16610D01*
X16603Y16681D01*
X16691Y16796D01*
X16747Y16931D01*
X16766Y17074D01*
Y17271D01*
X16747Y17415D01*
X16691Y17549D01*
X16603Y17664D01*
X16488Y17753D01*
X16354Y17808D01*
X16210Y17827D01*
D02*
G37*
G36*
X4992Y12801D02*
X4847D01*
X4707Y12764D01*
X4581Y12691D01*
X4478Y12588D01*
X4406Y12463D01*
X4368Y12323D01*
Y12177D01*
X4406Y12037D01*
X4478Y11912D01*
X4581Y11809D01*
X4707Y11736D01*
X4847Y11699D01*
X4992D01*
X5132Y11736D01*
X5258Y11809D01*
X5361Y11912D01*
X5433Y12037D01*
X5471Y12177D01*
Y12323D01*
X5433Y12463D01*
X5361Y12588D01*
X5258Y12691D01*
X5132Y12764D01*
X4992Y12801D01*
D02*
G37*
G36*
X3753Y14679D02*
X683D01*
Y10821D01*
X3753D01*
Y14679D01*
D02*
G37*
G36*
X4000Y10454D02*
X3882Y10438D01*
X3772Y10392D01*
X3677Y10320D01*
X3631Y10260D01*
X3581D01*
X3536Y10320D01*
X3441Y10392D01*
X3331Y10438D01*
X3213Y10454D01*
X3094Y10438D01*
X2984Y10392D01*
X2890Y10320D01*
X2844Y10260D01*
X2794D01*
X2748Y10320D01*
X2654Y10392D01*
X2543Y10438D01*
X2425Y10454D01*
X2307Y10438D01*
X2197Y10392D01*
X2102Y10320D01*
X2099Y10315D01*
X2051Y10331D01*
Y10450D01*
X1146D01*
Y9150D01*
X2051D01*
Y9269D01*
X2099Y9285D01*
X2102Y9280D01*
X2197Y9208D01*
X2307Y9162D01*
X2425Y9146D01*
X2543Y9162D01*
X2654Y9208D01*
X2748Y9280D01*
X2789Y9334D01*
X2839Y9317D01*
Y3550D01*
X2852Y3457D01*
X2888Y3370D01*
X2945Y3295D01*
X5095Y1145D01*
X5170Y1088D01*
X5257Y1052D01*
X5350Y1039D01*
X22400D01*
X22493Y1052D01*
X22580Y1088D01*
X22655Y1145D01*
X26305Y4795D01*
X26362Y4870D01*
X26398Y4957D01*
X26411Y5050D01*
Y5599D01*
X26700D01*
Y6701D01*
X25400D01*
Y5599D01*
X25689D01*
Y5199D01*
X22251Y1761D01*
X5499D01*
X3561Y3699D01*
Y9313D01*
X3581Y9340D01*
X3631D01*
X3677Y9280D01*
X3772Y9208D01*
X3882Y9162D01*
X4000Y9146D01*
X4118Y9162D01*
X4228Y9208D01*
X4323Y9280D01*
X4327Y9285D01*
X4374Y9269D01*
Y9150D01*
X5280D01*
Y10450D01*
X4374D01*
Y10331D01*
X4327Y10315D01*
X4323Y10320D01*
X4228Y10392D01*
X4118Y10438D01*
X4000Y10454D01*
D02*
G37*
G36*
X13970Y10852D02*
X12868D01*
Y9749D01*
X13970D01*
Y10852D01*
D02*
G37*
G36*
X7868D02*
X6766D01*
Y9749D01*
X7868D01*
Y10852D01*
D02*
G37*
G36*
X36148Y20706D02*
X35952D01*
X35808Y20687D01*
X35674Y20631D01*
X35558Y20543D01*
X35470Y20428D01*
X35415Y20294D01*
X35396Y20150D01*
X35415Y20006D01*
X35470Y19872D01*
X35558Y19757D01*
X35659Y19680D01*
X35663Y19666D01*
Y19634D01*
X35659Y19620D01*
X35558Y19543D01*
X35470Y19428D01*
X35415Y19294D01*
X35396Y19150D01*
X35415Y19006D01*
X35470Y18872D01*
X35558Y18757D01*
X35659Y18680D01*
X35663Y18666D01*
Y18634D01*
X35659Y18620D01*
X35558Y18543D01*
X35470Y18428D01*
X35415Y18294D01*
X35396Y18150D01*
X35415Y18006D01*
X35470Y17872D01*
X35558Y17757D01*
X35659Y17680D01*
X35663Y17666D01*
Y17634D01*
X35659Y17620D01*
X35558Y17543D01*
X35470Y17428D01*
X35415Y17294D01*
X35396Y17150D01*
X35415Y17006D01*
X35470Y16872D01*
X35558Y16757D01*
X35659Y16680D01*
X35663Y16666D01*
Y16634D01*
X35659Y16620D01*
X35558Y16543D01*
X35470Y16428D01*
X35415Y16294D01*
X35396Y16150D01*
X35415Y16006D01*
X35470Y15872D01*
X35558Y15757D01*
X35659Y15680D01*
X35663Y15666D01*
Y15634D01*
X35659Y15620D01*
X35558Y15543D01*
X35470Y15428D01*
X35415Y15294D01*
X35396Y15150D01*
X35415Y15006D01*
X35470Y14872D01*
X35558Y14757D01*
X35659Y14680D01*
X35663Y14666D01*
Y14634D01*
X35659Y14620D01*
X35558Y14543D01*
X35470Y14428D01*
X35415Y14294D01*
X35396Y14150D01*
X35415Y14006D01*
X35470Y13872D01*
X35558Y13757D01*
X35659Y13680D01*
X35663Y13666D01*
Y13634D01*
X35659Y13620D01*
X35558Y13543D01*
X35470Y13428D01*
X35415Y13294D01*
X35396Y13150D01*
X35415Y13006D01*
X35470Y12872D01*
X35558Y12757D01*
X35659Y12680D01*
X35663Y12666D01*
Y12634D01*
X35659Y12620D01*
X35558Y12543D01*
X35470Y12428D01*
X35415Y12294D01*
X35396Y12150D01*
X35415Y12006D01*
X35470Y11872D01*
X35558Y11757D01*
X35659Y11680D01*
X35663Y11666D01*
Y11634D01*
X35659Y11620D01*
X35558Y11543D01*
X35470Y11428D01*
X35415Y11294D01*
X35396Y11150D01*
X35415Y11006D01*
X35470Y10872D01*
X35558Y10757D01*
X35659Y10680D01*
X35663Y10666D01*
Y10634D01*
X35659Y10620D01*
X35558Y10543D01*
X35470Y10428D01*
X35415Y10294D01*
X35396Y10150D01*
X35415Y10006D01*
X35470Y9872D01*
X35558Y9757D01*
X35659Y9680D01*
X35663Y9666D01*
Y9634D01*
X35659Y9620D01*
X35558Y9543D01*
X35470Y9428D01*
X35415Y9294D01*
X35396Y9150D01*
X35415Y9006D01*
X35470Y8872D01*
X35558Y8757D01*
X35659Y8680D01*
X35663Y8666D01*
Y8634D01*
X35659Y8620D01*
X35558Y8543D01*
X35470Y8428D01*
X35415Y8294D01*
X35396Y8150D01*
X35415Y8006D01*
X35470Y7872D01*
X35558Y7757D01*
X35674Y7669D01*
X35808Y7613D01*
X35952Y7594D01*
X36148D01*
X36292Y7613D01*
X36426Y7669D01*
X36542Y7757D01*
X36630Y7872D01*
X36685Y8006D01*
X36704Y8150D01*
X36685Y8294D01*
X36630Y8428D01*
X36542Y8543D01*
X36441Y8620D01*
X36437Y8634D01*
Y8666D01*
X36441Y8680D01*
X36542Y8757D01*
X36630Y8872D01*
X36685Y9006D01*
X36704Y9150D01*
X36685Y9294D01*
X36630Y9428D01*
X36542Y9543D01*
X36441Y9620D01*
X36437Y9634D01*
Y9666D01*
X36441Y9680D01*
X36542Y9757D01*
X36630Y9872D01*
X36685Y10006D01*
X36704Y10150D01*
X36685Y10294D01*
X36630Y10428D01*
X36542Y10543D01*
X36441Y10620D01*
X36437Y10634D01*
Y10666D01*
X36441Y10680D01*
X36542Y10757D01*
X36630Y10872D01*
X36685Y11006D01*
X36704Y11150D01*
X36685Y11294D01*
X36630Y11428D01*
X36542Y11543D01*
X36441Y11620D01*
X36437Y11634D01*
Y11666D01*
X36441Y11680D01*
X36542Y11757D01*
X36630Y11872D01*
X36685Y12006D01*
X36704Y12150D01*
X36685Y12294D01*
X36630Y12428D01*
X36542Y12543D01*
X36441Y12620D01*
X36437Y12634D01*
Y12666D01*
X36441Y12680D01*
X36542Y12757D01*
X36630Y12872D01*
X36685Y13006D01*
X36704Y13150D01*
X36685Y13294D01*
X36630Y13428D01*
X36542Y13543D01*
X36441Y13620D01*
X36437Y13634D01*
Y13666D01*
X36441Y13680D01*
X36542Y13757D01*
X36630Y13872D01*
X36685Y14006D01*
X36704Y14150D01*
X36685Y14294D01*
X36630Y14428D01*
X36542Y14543D01*
X36441Y14620D01*
X36437Y14634D01*
Y14666D01*
X36441Y14680D01*
X36542Y14757D01*
X36630Y14872D01*
X36685Y15006D01*
X36704Y15150D01*
X36685Y15294D01*
X36630Y15428D01*
X36542Y15543D01*
X36441Y15620D01*
X36437Y15634D01*
Y15666D01*
X36441Y15680D01*
X36542Y15757D01*
X36630Y15872D01*
X36685Y16006D01*
X36704Y16150D01*
X36685Y16294D01*
X36630Y16428D01*
X36542Y16543D01*
X36441Y16620D01*
X36437Y16634D01*
Y16666D01*
X36441Y16680D01*
X36542Y16757D01*
X36630Y16872D01*
X36685Y17006D01*
X36704Y17150D01*
X36685Y17294D01*
X36630Y17428D01*
X36542Y17543D01*
X36441Y17620D01*
X36437Y17634D01*
Y17666D01*
X36441Y17680D01*
X36542Y17757D01*
X36630Y17872D01*
X36685Y18006D01*
X36704Y18150D01*
X36685Y18294D01*
X36630Y18428D01*
X36542Y18543D01*
X36441Y18620D01*
X36437Y18634D01*
Y18666D01*
X36441Y18680D01*
X36542Y18757D01*
X36630Y18872D01*
X36685Y19006D01*
X36704Y19150D01*
X36685Y19294D01*
X36630Y19428D01*
X36542Y19543D01*
X36441Y19620D01*
X36437Y19634D01*
Y19666D01*
X36441Y19680D01*
X36542Y19757D01*
X36630Y19872D01*
X36685Y20006D01*
X36704Y20150D01*
X36685Y20294D01*
X36630Y20428D01*
X36542Y20543D01*
X36426Y20631D01*
X36292Y20687D01*
X36148Y20706D01*
D02*
G37*
G36*
X26148D02*
X25952D01*
X25808Y20687D01*
X25674Y20631D01*
X25558Y20543D01*
X25470Y20428D01*
X25415Y20294D01*
X25396Y20150D01*
X25415Y20006D01*
X25470Y19872D01*
X25558Y19757D01*
X25659Y19680D01*
X25663Y19666D01*
Y19634D01*
X25659Y19620D01*
X25558Y19543D01*
X25470Y19428D01*
X25415Y19294D01*
X25396Y19150D01*
X25415Y19006D01*
X25470Y18872D01*
X25558Y18757D01*
X25659Y18680D01*
X25663Y18666D01*
Y18634D01*
X25659Y18620D01*
X25558Y18543D01*
X25470Y18428D01*
X25415Y18294D01*
X25396Y18150D01*
X25415Y18006D01*
X25470Y17872D01*
X25558Y17757D01*
X25659Y17680D01*
X25663Y17666D01*
Y17634D01*
X25659Y17620D01*
X25558Y17543D01*
X25470Y17428D01*
X25415Y17294D01*
X25396Y17150D01*
X25415Y17006D01*
X25470Y16872D01*
X25558Y16757D01*
X25659Y16680D01*
X25663Y16666D01*
Y16634D01*
X25659Y16620D01*
X25558Y16543D01*
X25470Y16428D01*
X25415Y16294D01*
X25396Y16150D01*
X25415Y16006D01*
X25470Y15872D01*
X25558Y15757D01*
X25659Y15680D01*
X25663Y15666D01*
Y15634D01*
X25659Y15620D01*
X25558Y15543D01*
X25470Y15428D01*
X25415Y15294D01*
X25396Y15150D01*
X25415Y15006D01*
X25470Y14872D01*
X25558Y14757D01*
X25659Y14680D01*
X25663Y14666D01*
Y14634D01*
X25659Y14620D01*
X25558Y14543D01*
X25470Y14428D01*
X25415Y14294D01*
X25396Y14150D01*
X25415Y14006D01*
X25470Y13872D01*
X25558Y13757D01*
X25659Y13680D01*
X25663Y13666D01*
Y13634D01*
X25659Y13620D01*
X25558Y13543D01*
X25470Y13428D01*
X25415Y13294D01*
X25396Y13150D01*
X25415Y13006D01*
X25470Y12872D01*
X25558Y12757D01*
X25659Y12680D01*
X25663Y12666D01*
Y12634D01*
X25659Y12620D01*
X25558Y12543D01*
X25470Y12428D01*
X25415Y12294D01*
X25396Y12150D01*
X25415Y12006D01*
X25470Y11872D01*
X25558Y11757D01*
X25659Y11680D01*
X25663Y11666D01*
Y11634D01*
X25659Y11620D01*
X25558Y11543D01*
X25470Y11428D01*
X25415Y11294D01*
X25396Y11150D01*
X25415Y11006D01*
X25470Y10872D01*
X25558Y10757D01*
X25659Y10680D01*
X25663Y10666D01*
Y10634D01*
X25659Y10620D01*
X25558Y10543D01*
X25470Y10428D01*
X25415Y10294D01*
X25396Y10150D01*
X25415Y10006D01*
X25470Y9872D01*
X25558Y9757D01*
X25659Y9680D01*
X25663Y9666D01*
Y9634D01*
X25659Y9620D01*
X25558Y9543D01*
X25470Y9428D01*
X25415Y9294D01*
X25396Y9150D01*
X25415Y9006D01*
X25470Y8872D01*
X25558Y8757D01*
X25659Y8680D01*
X25663Y8666D01*
Y8634D01*
X25659Y8620D01*
X25558Y8543D01*
X25470Y8428D01*
X25415Y8294D01*
X25396Y8150D01*
X25415Y8006D01*
X25470Y7872D01*
X25558Y7757D01*
X25674Y7669D01*
X25808Y7613D01*
X25952Y7594D01*
X26148D01*
X26292Y7613D01*
X26426Y7669D01*
X26542Y7757D01*
X26630Y7872D01*
X26685Y8006D01*
X26704Y8150D01*
X26685Y8294D01*
X26630Y8428D01*
X26542Y8543D01*
X26441Y8620D01*
X26437Y8634D01*
Y8666D01*
X26441Y8680D01*
X26542Y8757D01*
X26630Y8872D01*
X26685Y9006D01*
X26704Y9150D01*
X26685Y9294D01*
X26630Y9428D01*
X26542Y9543D01*
X26441Y9620D01*
X26437Y9634D01*
Y9666D01*
X26441Y9680D01*
X26542Y9757D01*
X26630Y9872D01*
X26685Y10006D01*
X26704Y10150D01*
X26685Y10294D01*
X26630Y10428D01*
X26542Y10543D01*
X26441Y10620D01*
X26437Y10634D01*
Y10666D01*
X26441Y10680D01*
X26542Y10757D01*
X26630Y10872D01*
X26685Y11006D01*
X26704Y11150D01*
X26685Y11294D01*
X26630Y11428D01*
X26542Y11543D01*
X26441Y11620D01*
X26437Y11634D01*
Y11666D01*
X26441Y11680D01*
X26542Y11757D01*
X26630Y11872D01*
X26685Y12006D01*
X26704Y12150D01*
X26685Y12294D01*
X26630Y12428D01*
X26542Y12543D01*
X26441Y12620D01*
X26437Y12634D01*
Y12666D01*
X26441Y12680D01*
X26542Y12757D01*
X26630Y12872D01*
X26685Y13006D01*
X26704Y13150D01*
X26685Y13294D01*
X26630Y13428D01*
X26542Y13543D01*
X26441Y13620D01*
X26437Y13634D01*
Y13666D01*
X26441Y13680D01*
X26542Y13757D01*
X26630Y13872D01*
X26685Y14006D01*
X26704Y14150D01*
X26685Y14294D01*
X26630Y14428D01*
X26542Y14543D01*
X26441Y14620D01*
X26437Y14634D01*
Y14666D01*
X26441Y14680D01*
X26542Y14757D01*
X26630Y14872D01*
X26685Y15006D01*
X26704Y15150D01*
X26685Y15294D01*
X26630Y15428D01*
X26542Y15543D01*
X26441Y15620D01*
X26437Y15634D01*
Y15666D01*
X26441Y15680D01*
X26542Y15757D01*
X26630Y15872D01*
X26685Y16006D01*
X26704Y16150D01*
X26685Y16294D01*
X26630Y16428D01*
X26542Y16543D01*
X26441Y16620D01*
X26437Y16634D01*
Y16666D01*
X26441Y16680D01*
X26542Y16757D01*
X26630Y16872D01*
X26685Y17006D01*
X26704Y17150D01*
X26685Y17294D01*
X26630Y17428D01*
X26542Y17543D01*
X26441Y17620D01*
X26437Y17634D01*
Y17666D01*
X26441Y17680D01*
X26542Y17757D01*
X26630Y17872D01*
X26685Y18006D01*
X26704Y18150D01*
X26685Y18294D01*
X26630Y18428D01*
X26542Y18543D01*
X26441Y18620D01*
X26437Y18634D01*
Y18666D01*
X26441Y18680D01*
X26542Y18757D01*
X26630Y18872D01*
X26685Y19006D01*
X26704Y19150D01*
X26685Y19294D01*
X26630Y19428D01*
X26542Y19543D01*
X26441Y19620D01*
X26437Y19634D01*
Y19666D01*
X26441Y19680D01*
X26542Y19757D01*
X26630Y19872D01*
X26685Y20006D01*
X26704Y20150D01*
X26685Y20294D01*
X26630Y20428D01*
X26542Y20543D01*
X26426Y20631D01*
X26292Y20687D01*
X26148Y20706D01*
D02*
G37*
G36*
X23823Y14506D02*
X23627D01*
X23483Y14487D01*
X23349Y14431D01*
X23234Y14343D01*
X23145Y14228D01*
X23090Y14094D01*
X23071Y13950D01*
X23090Y13806D01*
X23145Y13672D01*
X23234Y13557D01*
X23334Y13480D01*
X23338Y13466D01*
Y13434D01*
X23334Y13420D01*
X23234Y13343D01*
X23145Y13228D01*
X23090Y13094D01*
X23071Y12950D01*
X23090Y12806D01*
X23145Y12672D01*
X23234Y12557D01*
X23334Y12480D01*
X23338Y12466D01*
Y12434D01*
X23334Y12420D01*
X23234Y12343D01*
X23145Y12228D01*
X23090Y12094D01*
X23071Y11950D01*
X23090Y11806D01*
X23145Y11672D01*
X23234Y11557D01*
X23334Y11480D01*
X23338Y11466D01*
Y11434D01*
X23334Y11420D01*
X23234Y11343D01*
X23145Y11228D01*
X23090Y11094D01*
X23071Y10950D01*
X23090Y10806D01*
X23145Y10672D01*
X23234Y10557D01*
X23334Y10480D01*
X23338Y10466D01*
Y10434D01*
X23334Y10420D01*
X23234Y10343D01*
X23145Y10228D01*
X23090Y10094D01*
X23071Y9950D01*
X23090Y9806D01*
X23145Y9672D01*
X23234Y9557D01*
X23334Y9480D01*
X23338Y9466D01*
Y9434D01*
X23334Y9420D01*
X23234Y9343D01*
X23145Y9228D01*
X23090Y9094D01*
X23071Y8950D01*
X23090Y8806D01*
X23145Y8672D01*
X23234Y8557D01*
X23334Y8480D01*
X23338Y8466D01*
Y8434D01*
X23334Y8420D01*
X23234Y8343D01*
X23145Y8228D01*
X23090Y8094D01*
X23071Y7950D01*
X23090Y7806D01*
X23145Y7672D01*
X23234Y7557D01*
X23349Y7469D01*
X23483Y7413D01*
X23627Y7394D01*
X23823D01*
X23967Y7413D01*
X24101Y7469D01*
X24217Y7557D01*
X24305Y7672D01*
X24360Y7806D01*
X24379Y7950D01*
X24360Y8094D01*
X24305Y8228D01*
X24217Y8343D01*
X24116Y8420D01*
X24112Y8434D01*
Y8466D01*
X24116Y8480D01*
X24217Y8557D01*
X24305Y8672D01*
X24360Y8806D01*
X24379Y8950D01*
X24360Y9094D01*
X24305Y9228D01*
X24217Y9343D01*
X24116Y9420D01*
X24112Y9434D01*
Y9466D01*
X24116Y9480D01*
X24217Y9557D01*
X24305Y9672D01*
X24360Y9806D01*
X24379Y9950D01*
X24360Y10094D01*
X24305Y10228D01*
X24217Y10343D01*
X24116Y10420D01*
X24112Y10434D01*
Y10466D01*
X24116Y10480D01*
X24217Y10557D01*
X24305Y10672D01*
X24360Y10806D01*
X24379Y10950D01*
X24360Y11094D01*
X24305Y11228D01*
X24217Y11343D01*
X24116Y11420D01*
X24112Y11434D01*
Y11466D01*
X24116Y11480D01*
X24217Y11557D01*
X24305Y11672D01*
X24360Y11806D01*
X24379Y11950D01*
X24360Y12094D01*
X24305Y12228D01*
X24217Y12343D01*
X24116Y12420D01*
X24112Y12434D01*
Y12466D01*
X24116Y12480D01*
X24217Y12557D01*
X24305Y12672D01*
X24360Y12806D01*
X24379Y12950D01*
X24360Y13094D01*
X24305Y13228D01*
X24217Y13343D01*
X24116Y13420D01*
X24112Y13434D01*
Y13466D01*
X24116Y13480D01*
X24217Y13557D01*
X24305Y13672D01*
X24360Y13806D01*
X24379Y13950D01*
X24360Y14094D01*
X24305Y14228D01*
X24217Y14343D01*
X24101Y14431D01*
X23967Y14487D01*
X23823Y14506D01*
D02*
G37*
G36*
X7873Y7901D02*
X7727D01*
X7587Y7864D01*
X7462Y7791D01*
X7359Y7688D01*
X7286Y7563D01*
X7249Y7423D01*
Y7277D01*
X7286Y7137D01*
X7359Y7012D01*
X7462Y6909D01*
X7587Y6836D01*
X7727Y6799D01*
X7873D01*
X8013Y6836D01*
X8138Y6909D01*
X8241Y7012D01*
X8314Y7137D01*
X8351Y7277D01*
Y7423D01*
X8314Y7563D01*
X8241Y7688D01*
X8138Y7791D01*
X8013Y7864D01*
X7873Y7901D01*
D02*
G37*
G36*
X36148Y6706D02*
X35952D01*
X35808Y6687D01*
X35674Y6631D01*
X35558Y6543D01*
X35470Y6428D01*
X35415Y6294D01*
X35396Y6150D01*
X35415Y6006D01*
X35470Y5872D01*
X35558Y5757D01*
X35674Y5669D01*
X35808Y5613D01*
X35952Y5594D01*
X36148D01*
X36292Y5613D01*
X36426Y5669D01*
X36542Y5757D01*
X36630Y5872D01*
X36685Y6006D01*
X36704Y6150D01*
X36685Y6294D01*
X36630Y6428D01*
X36542Y6543D01*
X36426Y6631D01*
X36292Y6687D01*
X36148Y6706D01*
D02*
G37*
G36*
X22827Y4250D02*
X21527D01*
Y2950D01*
X22827D01*
Y4250D01*
D02*
G37*
G36*
X14444Y5582D02*
X6256D01*
Y2118D01*
X14444D01*
Y5582D01*
D02*
G37*
G36*
X37888Y2520D02*
X37702D01*
X37520Y2483D01*
X37348Y2412D01*
X37193Y2309D01*
X37061Y2177D01*
X36958Y2022D01*
X36887Y1850D01*
X36850Y1668D01*
Y1482D01*
X36887Y1299D01*
X36958Y1127D01*
X37061Y972D01*
X37193Y841D01*
X37348Y737D01*
X37520Y666D01*
X37702Y630D01*
X37888D01*
X38071Y666D01*
X38243Y737D01*
X38398Y841D01*
X38529Y972D01*
X38633Y1127D01*
X38704Y1299D01*
X38740Y1482D01*
Y1668D01*
X38704Y1850D01*
X38633Y2022D01*
X38529Y2177D01*
X38398Y2309D01*
X38243Y2412D01*
X38071Y2483D01*
X37888Y2520D01*
D02*
G37*
G36*
X1668D02*
X1482D01*
X1299Y2483D01*
X1127Y2412D01*
X972Y2309D01*
X841Y2177D01*
X737Y2022D01*
X666Y1850D01*
X630Y1668D01*
Y1482D01*
X666Y1299D01*
X737Y1127D01*
X841Y972D01*
X972Y841D01*
X1127Y737D01*
X1299Y666D01*
X1482Y630D01*
X1668D01*
X1850Y666D01*
X2022Y737D01*
X2177Y841D01*
X2309Y972D01*
X2412Y1127D01*
X2483Y1299D01*
X2520Y1482D01*
Y1668D01*
X2483Y1850D01*
X2412Y2022D01*
X2309Y2177D01*
X2177Y2309D01*
X2022Y2412D01*
X1850Y2483D01*
X1668Y2520D01*
D02*
G37*
%LPD*%
D40*
X11800Y7276D02*
Y7950D01*
X5850Y13900D02*
Y17100D01*
Y13900D02*
X11800Y7950D01*
X7100Y18350D02*
X7900D01*
X8463Y17787D01*
Y17100D02*
Y17787D01*
X5850Y17100D02*
X7100Y18350D01*
X26050Y7155D02*
X36050Y7155D01*
X11463Y15997D02*
Y17100D01*
Y15997D02*
X13419Y14041D01*
X16900Y12950D02*
X17725D01*
X16200Y13650D02*
Y17150D01*
Y13650D02*
X16900Y12950D01*
X17725Y5148D02*
Y6950D01*
Y5148D02*
X19273Y3600D01*
D41*
X7463Y15237D02*
Y17100D01*
Y15237D02*
X10372Y12328D01*
X13740D01*
X26050Y5050D02*
Y6150D01*
X22400Y1400D02*
X26050Y5050D01*
X5350Y1400D02*
X22400D01*
X13700Y17100D02*
X15118Y15682D01*
X12463Y17100D02*
X13700D01*
X16218Y9850D02*
X17750D01*
X3200Y3550D02*
X5350Y1400D01*
X3200Y3550D02*
Y9991D01*
X15118Y12132D02*
Y15682D01*
X16350Y10900D02*
X17800D01*
X15118Y12132D02*
X16350Y10900D01*
X13740Y12328D02*
X16218Y9850D01*
D42*
X12800Y7350D02*
D03*
X11800D02*
D03*
X10800D02*
D03*
X9800D02*
D03*
X8800D02*
D03*
X7800D02*
D03*
X7478Y17083D02*
D03*
X8478D02*
D03*
X9478D02*
D03*
X10478D02*
D03*
X11478D02*
D03*
X12478D02*
D03*
X7317Y14041D02*
D03*
X13419D02*
D03*
X4919Y13234D02*
D03*
Y12250D02*
D03*
D43*
X10350Y3850D02*
D03*
X9940Y20700D02*
D03*
D44*
X1598Y9800D02*
D03*
X4827D02*
D03*
D45*
X2425D02*
D03*
X3213D02*
D03*
X4000D02*
D03*
D46*
X2218Y12750D02*
D03*
D47*
X7317Y10300D02*
D03*
X13419D02*
D03*
D48*
X17725Y13950D02*
D03*
D49*
X23725Y6950D02*
D03*
Y7950D02*
D03*
Y8950D02*
D03*
Y9950D02*
D03*
Y10950D02*
D03*
Y11950D02*
D03*
Y12950D02*
D03*
Y13950D02*
D03*
X17725Y12950D02*
D03*
Y11950D02*
D03*
Y10950D02*
D03*
Y9950D02*
D03*
Y8950D02*
D03*
Y7950D02*
D03*
Y6950D02*
D03*
D50*
X19273Y3600D02*
D03*
D51*
X22177Y3600D02*
D03*
D52*
X22810Y22223D02*
D03*
X16710D02*
D03*
D53*
X23210Y17173D02*
D03*
X22210D02*
D03*
X21210D02*
D03*
X20210D02*
D03*
X19210D02*
D03*
X18210D02*
D03*
X17210D02*
D03*
X16210D02*
D03*
D54*
X36050Y17150D02*
D03*
Y14150D02*
D03*
Y15150D02*
D03*
Y16150D02*
D03*
Y13150D02*
D03*
Y12150D02*
D03*
Y9150D02*
D03*
Y8150D02*
D03*
Y7150D02*
D03*
Y6150D02*
D03*
Y20150D02*
D03*
Y18150D02*
D03*
Y10150D02*
D03*
Y11150D02*
D03*
Y19150D02*
D03*
X26050Y12150D02*
D03*
Y10150D02*
D03*
Y11150D02*
D03*
Y13150D02*
D03*
Y14150D02*
D03*
Y15150D02*
D03*
Y16150D02*
D03*
Y17150D02*
D03*
Y18150D02*
D03*
Y19150D02*
D03*
Y20150D02*
D03*
Y8150D02*
D03*
Y9150D02*
D03*
Y7150D02*
D03*
D55*
Y6150D02*
D03*
D56*
X37795Y1575D02*
D03*
X1575D02*
D03*
X37795Y23228D02*
D03*
X1575D02*
D03*
M02*
