G04*
G04 #@! TF.GenerationSoftware,Altium Limited,Altium Designer,23.10.1 (27)*
G04*
G04 Layer_Color=65535*
%FSLAX24Y24*%
%MOIN*%
G70*
G04*
G04 #@! TF.SameCoordinates,035D824A-8269-4E4D-BA6D-B56C25CEACC5*
G04*
G04*
G04 #@! TF.FilePolarity,Positive*
G04*
G01*
G75*
%ADD10C,0.0100*%
%ADD11C,0.0394*%
%ADD12C,0.0047*%
%ADD13C,0.0315*%
%ADD14C,0.0047*%
%ADD15C,0.0047*%
%ADD16C,0.0050*%
%ADD17C,0.0200*%
%ADD18C,0.0139*%
%ADD19C,0.0080*%
%ADD20C,0.0060*%
%ADD21C,0.0070*%
%ADD22C,0.0070*%
%ADD23C,0.0098*%
%ADD24C,0.0059*%
D10*
X21223Y3597D02*
G03*
X21223Y3597I-500J0D01*
G01*
X23043D02*
G03*
X23043Y3597I-2320J0D01*
G01*
X36250Y3250D02*
G03*
X36250Y3250I-500J0D01*
G01*
X36316Y21600D02*
G03*
X36316Y21600I-566J0D01*
G01*
X26950Y21400D02*
G03*
X26950Y21400I-500J0D01*
G01*
X27016Y3200D02*
G03*
X27016Y3200I-566J0D01*
G01*
X1188Y8800D02*
X5238D01*
X1188D02*
Y10800D01*
X5238D01*
Y8800D02*
Y10800D01*
X6825Y9808D02*
Y14533D01*
X13977D01*
Y9808D02*
Y14533D01*
X6825Y9808D02*
X13977D01*
X15460Y16573D02*
X23910D01*
X15460D02*
Y23122D01*
X23910D01*
Y16573D02*
Y23122D01*
X6800Y15400D02*
Y15667D01*
X6933Y15800D01*
X7067Y15667D01*
Y15400D01*
Y15600D01*
X6800D01*
X7466Y15400D02*
X7200D01*
X7466Y15667D01*
Y15733D01*
X7400Y15800D01*
X7267D01*
X7200Y15733D01*
X8000Y15600D02*
X8266D01*
X8133Y15733D02*
Y15467D01*
X9066Y15800D02*
X8799D01*
Y15400D01*
X9066D01*
X8799Y15600D02*
X8933D01*
X9199Y15400D02*
Y15800D01*
X9466Y15400D01*
Y15800D01*
X9599Y15400D02*
X9732D01*
X9666D01*
Y15800D01*
X9599Y15733D01*
X10599Y15800D02*
X10332D01*
Y15400D01*
X10599D01*
X10332Y15600D02*
X10465D01*
X10732Y15400D02*
Y15800D01*
X10999Y15400D01*
Y15800D01*
X11399Y15400D02*
X11132D01*
X11399Y15667D01*
Y15733D01*
X11332Y15800D01*
X11199D01*
X11132Y15733D01*
X11932Y15600D02*
X12198D01*
X12731Y15400D02*
Y15667D01*
X12865Y15800D01*
X12998Y15667D01*
Y15400D01*
Y15600D01*
X12731D01*
X13131Y15400D02*
X13265D01*
X13198D01*
Y15800D01*
X13131Y15733D01*
X7000Y9050D02*
Y8650D01*
X7200D01*
X7267Y8717D01*
Y8783D01*
X7200Y8850D01*
X7000D01*
X7200D01*
X7267Y8917D01*
Y8983D01*
X7200Y9050D01*
X7000D01*
X7400Y8650D02*
X7533D01*
X7467D01*
Y9050D01*
X7400Y8983D01*
X8133Y8850D02*
X8400D01*
X9199Y9050D02*
X8933D01*
Y8650D01*
X9199D01*
X8933Y8850D02*
X9066D01*
X9333Y8650D02*
Y9050D01*
X9599Y8650D01*
Y9050D01*
X9999Y8650D02*
X9732D01*
X9999Y8917D01*
Y8983D01*
X9932Y9050D01*
X9799D01*
X9732Y8983D01*
X10799Y9050D02*
X10532D01*
Y8650D01*
X10799D01*
X10532Y8850D02*
X10665D01*
X10932Y8650D02*
Y9050D01*
X11199Y8650D01*
Y9050D01*
X11332Y8650D02*
X11465D01*
X11399D01*
Y9050D01*
X11332Y8983D01*
X12065Y8850D02*
X12332D01*
X12198Y8983D02*
Y8717D01*
X12865Y9050D02*
Y8650D01*
X13065D01*
X13131Y8717D01*
Y8783D01*
X13065Y8850D01*
X12865D01*
X13065D01*
X13131Y8917D01*
Y8983D01*
X13065Y9050D01*
X12865D01*
X13531Y8650D02*
X13265D01*
X13531Y8917D01*
Y8983D01*
X13465Y9050D01*
X13331D01*
X13265Y8983D01*
X21665Y11075D02*
X21590Y11150D01*
X21440D01*
X21365Y11075D01*
Y11000D01*
X21440Y10925D01*
X21590D01*
X21665Y10850D01*
Y10775D01*
X21590Y10700D01*
X21440D01*
X21365Y10775D01*
X21815Y11150D02*
X22115D01*
X21965D01*
Y10700D01*
X22265Y11150D02*
Y10700D01*
X22490D01*
X22565Y10775D01*
Y10850D01*
X22490Y10925D01*
X22265D01*
X22490D01*
X22565Y11000D01*
Y11075D01*
X22490Y11150D01*
X22265D01*
X22715D02*
Y11075D01*
X22865Y10925D01*
X23015Y11075D01*
Y11150D01*
X22865Y10925D02*
Y10700D01*
X21565Y11700D02*
Y12000D01*
X21715Y12150D01*
X21865Y12000D01*
Y11700D01*
Y11925D01*
X21565D01*
X22015Y12150D02*
X22165D01*
X22090D01*
Y11700D01*
X22015D01*
X22165D01*
X22390D02*
Y12150D01*
X22690Y11700D01*
Y12150D01*
X22840Y11700D02*
X22990D01*
X22915D01*
Y12150D01*
X22840Y12075D01*
X21415Y9150D02*
Y8700D01*
X21640D01*
X21715Y8775D01*
Y8850D01*
X21640Y8925D01*
X21415D01*
X21640D01*
X21715Y9000D01*
Y9075D01*
X21640Y9150D01*
X21415D01*
X21865D02*
X22015D01*
X21940D01*
Y8700D01*
X21865D01*
X22015D01*
X22240D02*
Y9150D01*
X22540Y8700D01*
Y9150D01*
X22990Y8700D02*
X22690D01*
X22990Y9000D01*
Y9075D01*
X22915Y9150D01*
X22765D01*
X22690Y9075D01*
X21365Y7700D02*
Y8150D01*
X21590D01*
X21665Y8075D01*
Y7925D01*
X21590Y7850D01*
X21365D01*
X21815Y8150D02*
Y7700D01*
X21965Y7850D01*
X22115Y7700D01*
Y8150D01*
X22265Y7700D02*
Y8150D01*
X22415Y8000D01*
X22565Y8150D01*
Y7700D01*
X22715Y8150D02*
Y7700D01*
X22940D01*
X23015Y7775D01*
Y7850D01*
X22940Y7925D01*
X22715D01*
X22940D01*
X23015Y8000D01*
Y8075D01*
X22940Y8150D01*
X22715D01*
X21565Y10150D02*
Y9700D01*
X21790D01*
X21865Y9775D01*
Y9850D01*
X21790Y9925D01*
X21565D01*
X21790D01*
X21865Y10000D01*
Y10075D01*
X21790Y10150D01*
X21565D01*
X22015D02*
X22165D01*
X22090D01*
Y9700D01*
X22015D01*
X22165D01*
X22390D02*
Y10150D01*
X22690Y9700D01*
Y10150D01*
X22840Y9700D02*
X22990D01*
X22915D01*
Y10150D01*
X22840Y10075D01*
X22115Y7075D02*
X22040Y7150D01*
X21890D01*
X21815Y7075D01*
Y6775D01*
X21890Y6700D01*
X22040D01*
X22115Y6775D01*
Y6925D01*
X21965D01*
X22265Y6700D02*
Y7150D01*
X22565Y6700D01*
Y7150D01*
X22715D02*
Y6700D01*
X22940D01*
X23015Y6775D01*
Y7075D01*
X22940Y7150D01*
X22715D01*
X21465Y12700D02*
Y13000D01*
X21615Y13150D01*
X21765Y13000D01*
Y12700D01*
Y12925D01*
X21465D01*
X21915Y13150D02*
X22065D01*
X21990D01*
Y12700D01*
X21915D01*
X22065D01*
X22290D02*
Y13150D01*
X22590Y12700D01*
Y13150D01*
X23040Y12700D02*
X22740D01*
X23040Y13000D01*
Y13075D01*
X22965Y13150D01*
X22815D01*
X22740Y13075D01*
X21415Y13700D02*
Y14150D01*
X21640D01*
X21715Y14075D01*
Y13925D01*
X21640Y13850D01*
X21415D01*
X21865Y14150D02*
Y13700D01*
X22015Y13850D01*
X22165Y13700D01*
Y14150D01*
X22315Y13700D02*
Y14150D01*
X22465Y14000D01*
X22615Y14150D01*
Y13700D01*
X22765D02*
Y14000D01*
X22915Y14150D01*
X23065Y14000D01*
Y13700D01*
Y13925D01*
X22765D01*
X18715Y12125D02*
X18640Y12200D01*
X18490D01*
X18415Y12125D01*
Y11825D01*
X18490Y11750D01*
X18640D01*
X18715Y11825D01*
Y11975D01*
X18565D01*
X18865Y11750D02*
Y12200D01*
X19165Y11750D01*
Y12200D01*
X19315D02*
Y11750D01*
X19540D01*
X19615Y11825D01*
Y12125D01*
X19540Y12200D01*
X19315D01*
X18415Y9150D02*
Y8700D01*
X18640D01*
X18715Y8775D01*
Y8850D01*
X18640Y8925D01*
X18415D01*
X18640D01*
X18715Y9000D01*
Y9075D01*
X18640Y9150D01*
X18415D01*
X19090D02*
X18940D01*
X18865Y9075D01*
Y8775D01*
X18940Y8700D01*
X19090D01*
X19165Y8775D01*
Y9075D01*
X19090Y9150D01*
X19315Y8700D02*
X19465D01*
X19390D01*
Y9150D01*
X19315Y9075D01*
X18415Y8150D02*
Y7700D01*
X18640D01*
X18715Y7775D01*
Y7850D01*
X18640Y7925D01*
X18415D01*
X18640D01*
X18715Y8000D01*
Y8075D01*
X18640Y8150D01*
X18415D01*
X19090D02*
X18940D01*
X18865Y8075D01*
Y7775D01*
X18940Y7700D01*
X19090D01*
X19165Y7775D01*
Y8075D01*
X19090Y8150D01*
X19615Y7700D02*
X19315D01*
X19615Y8000D01*
Y8075D01*
X19540Y8150D01*
X19390D01*
X19315Y8075D01*
X18415Y9700D02*
Y10000D01*
X18565Y10150D01*
X18715Y10000D01*
Y9700D01*
Y9925D01*
X18415D01*
X19090Y10150D02*
X18940D01*
X18865Y10075D01*
Y9775D01*
X18940Y9700D01*
X19090D01*
X19165Y9775D01*
Y10075D01*
X19090Y10150D01*
X19615Y9700D02*
X19315D01*
X19615Y10000D01*
Y10075D01*
X19540Y10150D01*
X19390D01*
X19315Y10075D01*
X18415Y10700D02*
Y11000D01*
X18565Y11150D01*
X18715Y11000D01*
Y10700D01*
Y10925D01*
X18415D01*
X19090Y11150D02*
X18940D01*
X18865Y11075D01*
Y10775D01*
X18940Y10700D01*
X19090D01*
X19165Y10775D01*
Y11075D01*
X19090Y11150D01*
X19315Y10700D02*
X19465D01*
X19390D01*
Y11150D01*
X19315Y11075D01*
X18715Y7075D02*
X18640Y7150D01*
X18490D01*
X18415Y7075D01*
Y6775D01*
X18490Y6700D01*
X18640D01*
X18715Y6775D01*
Y6925D01*
X18565D01*
X18865Y6700D02*
Y7150D01*
X19165Y6700D01*
Y7150D01*
X19315D02*
Y6700D01*
X19540D01*
X19615Y6775D01*
Y7075D01*
X19540Y7150D01*
X19315D01*
X18415Y13150D02*
Y12850D01*
X18565Y12700D01*
X18715Y12850D01*
Y13150D01*
X19165Y13075D02*
X19090Y13150D01*
X18940D01*
X18865Y13075D01*
Y12775D01*
X18940Y12700D01*
X19090D01*
X19165Y12775D01*
X19615Y13075D02*
X19540Y13150D01*
X19390D01*
X19315Y13075D01*
Y12775D01*
X19390Y12700D01*
X19540D01*
X19615Y12775D01*
X18415Y14150D02*
Y13850D01*
X18565Y13700D01*
X18715Y13850D01*
Y14150D01*
X18865Y13700D02*
Y14150D01*
X19015Y14000D01*
X19165Y14150D01*
Y13700D01*
D11*
X28247Y3278D02*
G03*
X28247Y3276I-197J-1D01*
G01*
X34247Y3278D02*
G03*
X34247Y3276I-197J8D01*
G01*
D12*
X26226Y22328D02*
G03*
X25446Y21650I0J-787D01*
G01*
X25450Y3010D02*
G03*
X26211Y2251I750J-10D01*
G01*
X35900Y2250D02*
G03*
X36687Y3050I0J787D01*
G01*
X36700Y21650D02*
G03*
X35897Y22321I-779J-116D01*
G01*
X27550Y2550D02*
X28550D01*
Y4050D01*
X29450Y2250D02*
Y4612D01*
X27550Y4050D02*
X28550D01*
X29450Y4612D02*
X32600D01*
X26211Y2251D02*
X35900Y2250D01*
X32600Y2250D02*
Y4612D01*
X27550Y2550D02*
Y4050D01*
X26226Y22328D02*
X35897Y22321D01*
X27750Y22150D02*
X34350D01*
X31050Y21088D02*
Y21888D01*
Y21088D02*
X32050D01*
X33050Y20488D02*
Y21888D01*
X29050Y21088D02*
X30050D01*
X32050Y21888D02*
X34050D01*
X30050D02*
X31050D01*
X32050Y21088D02*
Y21888D01*
X29050Y21088D02*
Y21888D01*
X27650Y20250D02*
X34250Y20217D01*
X28097Y19932D02*
X34003D01*
X28097Y12845D02*
X34003D01*
X30050Y21088D02*
Y21888D01*
X28050D02*
X29050D01*
X28097Y12845D02*
Y19932D01*
X27750Y20250D02*
Y22150D01*
X28050Y20488D02*
Y21888D01*
X36687Y3050D02*
X36700Y21650D01*
X33550Y2550D02*
X34550D01*
Y4050D01*
X33550Y2550D02*
Y4050D01*
X34550D01*
X34350Y20250D02*
Y22150D01*
X34003Y12845D02*
Y19932D01*
X34050Y20488D02*
Y21888D01*
X25446Y21650D02*
X25450Y3010D01*
D13*
X29207Y13528D02*
G03*
X29207Y13526I-158J-1D01*
G01*
D14*
X7125Y6331D02*
X13446D01*
X13100Y8119D02*
Y8383D01*
X12450Y8119D02*
Y8383D01*
X8100Y8119D02*
Y8383D01*
X7450Y8119D02*
Y8383D01*
X6855Y6083D02*
X13700D01*
Y8383D01*
X6855D02*
X13700D01*
X6855Y6083D02*
Y8383D01*
X8100Y8119D02*
X12450D01*
X13100D02*
X13687D01*
X6863D02*
X7450D01*
X13446Y6331D02*
Y7431D01*
X6832Y18102D02*
X13153D01*
X7178Y16050D02*
Y16313D01*
X7828Y16050D02*
Y16313D01*
X12178Y16050D02*
Y16313D01*
X12828Y16050D02*
Y16313D01*
X6578Y18350D02*
X13422D01*
X6578Y16050D02*
Y18350D01*
Y16050D02*
X13422D01*
Y18350D01*
X7828Y16313D02*
X12178D01*
X6591D02*
X7178D01*
X12828D02*
X13414D01*
X6832Y17002D02*
Y18102D01*
X4221Y13360D02*
Y14200D01*
X3994Y13360D02*
X4221D01*
Y11300D02*
Y12124D01*
X6229Y11300D02*
Y14200D01*
X3972Y11300D02*
X6229D01*
X3972D02*
Y14200D01*
X6229D01*
X3994Y12124D02*
X4221D01*
X4821Y11566D02*
X5972D01*
X4821Y11300D02*
Y11566D01*
Y13934D02*
Y14200D01*
X5972Y11566D02*
Y13934D01*
X4821D02*
X5972D01*
D15*
X6875Y7433D02*
X7125D01*
Y6331D02*
Y7433D01*
X13446Y7431D02*
X13696D01*
X13153Y17000D02*
X13403D01*
X13153D02*
Y18102D01*
X6582Y17002D02*
X6832D01*
D16*
X16615Y6403D02*
X24815D01*
X16615Y14650D02*
X24815D01*
X16615Y6403D02*
Y14650D01*
X24815Y6403D02*
Y14650D01*
D17*
X38150Y20547D02*
Y20647D01*
X38050D01*
Y20547D01*
X38150D01*
X38250Y20647D01*
Y20847D01*
X38150Y20947D01*
X37950D01*
X37850Y20847D01*
Y20447D01*
X37950Y20347D01*
X38250D01*
X37850Y19147D02*
X38050D01*
X37950D01*
Y19747D01*
X37850D01*
Y18547D02*
Y18247D01*
X37950Y18147D01*
X38250D01*
Y18547D01*
Y17547D02*
X37950D01*
X37850Y17448D01*
Y17248D01*
X37950Y17148D01*
X38250D01*
X37950Y16548D02*
X38150D01*
X38250Y16448D01*
Y16148D01*
X37950D01*
X37850Y16248D01*
X37950Y16348D01*
X38250D01*
X37850Y15148D02*
X38150D01*
X38250Y15248D01*
X38150Y15348D01*
X37950D01*
X37850Y15448D01*
X37950Y15548D01*
X38250D01*
X37850Y14548D02*
Y13948D01*
Y14248D01*
X37950Y14348D01*
X38150D01*
X38250Y14248D01*
Y13948D01*
X37850Y13348D02*
Y13048D01*
X37950Y12948D01*
X38250D01*
Y13348D01*
Y12348D02*
Y11749D01*
X37950D01*
X37850Y11849D01*
Y12048D01*
X37950Y12148D01*
X38250D01*
X37850Y10749D02*
X38150D01*
X38250Y10849D01*
X38150Y10949D01*
X37950D01*
X37850Y11049D01*
X37950Y11149D01*
X38250D01*
X37950Y9749D02*
X38150D01*
X38250Y9849D01*
Y10049D01*
X38150Y10149D01*
X37950D01*
X37850Y10049D01*
Y9849D01*
X37950Y9749D01*
X37850Y8749D02*
Y9149D01*
X38150D01*
X38250Y9049D01*
Y8749D01*
Y7549D02*
X37850D01*
X38250Y7949D01*
Y8049D01*
X38150Y8149D01*
X37950D01*
X37850Y8049D01*
Y6849D02*
X37950Y6949D01*
X38150D01*
X38250Y6849D01*
Y6449D01*
X38150Y6350D01*
X37950D01*
X37850Y6449D01*
Y6849D01*
Y5650D02*
X37950Y5750D01*
X38150D01*
X38250Y5650D01*
Y5250D01*
X38150Y5150D01*
X37950D01*
X37850Y5250D01*
Y5650D01*
X38250Y3950D02*
X37850D01*
X38250Y4350D01*
Y4450D01*
X38150Y4550D01*
X37950D01*
X37850Y4450D01*
X28300Y1550D02*
X28050D01*
X28175D01*
Y925D01*
X28050Y800D01*
X27925D01*
X27800Y925D01*
X29050Y1425D02*
X28925Y1550D01*
X28675D01*
X28550Y1425D01*
Y925D01*
X28675Y800D01*
X28925D01*
X29050Y925D01*
Y1175D01*
X28800D01*
X29300Y1550D02*
Y800D01*
X29674D01*
X29799Y925D01*
Y1050D01*
X29674Y1175D01*
X29300D01*
X29674D01*
X29799Y1300D01*
Y1425D01*
X29674Y1550D01*
X29300D01*
X30049Y1425D02*
X30174Y1550D01*
X30424D01*
X30549Y1425D01*
Y1300D01*
X30424Y1175D01*
X30299D01*
X30424D01*
X30549Y1050D01*
Y925D01*
X30424Y800D01*
X30174D01*
X30049Y925D01*
X30799Y1550D02*
X31299D01*
Y1425D01*
X30799Y925D01*
Y800D01*
X31549Y1175D02*
X32049D01*
X32798Y1550D02*
X32299D01*
Y1175D01*
X32548Y1300D01*
X32673D01*
X32798Y1175D01*
Y925D01*
X32673Y800D01*
X32424D01*
X32299Y925D01*
X33548Y800D02*
X33048D01*
X33548Y1300D01*
Y1425D01*
X33423Y1550D01*
X33173D01*
X33048Y1425D01*
X33798D02*
X33923Y1550D01*
X34173D01*
X34298Y1425D01*
Y925D01*
X34173Y800D01*
X33923D01*
X33798Y925D01*
Y1425D01*
X27700Y24000D02*
Y23250D01*
X28075D01*
X28200Y23375D01*
Y23500D01*
X28075Y23625D01*
X27700D01*
X28075D01*
X28200Y23750D01*
Y23875D01*
X28075Y24000D01*
X27700D01*
X28450Y23250D02*
X28700D01*
X28575D01*
Y23750D01*
X28450D01*
X29324Y23000D02*
X29449D01*
X29574Y23125D01*
Y23750D01*
X29200D01*
X29075Y23625D01*
Y23375D01*
X29200Y23250D01*
X29574D01*
X29824Y23750D02*
Y23375D01*
X29949Y23250D01*
X30074Y23375D01*
X30199Y23250D01*
X30324Y23375D01*
Y23750D01*
X30949Y23250D02*
X30699D01*
X30574Y23375D01*
Y23625D01*
X30699Y23750D01*
X30949D01*
X31074Y23625D01*
Y23500D01*
X30574D01*
X31324Y23250D02*
X31574D01*
X31449D01*
Y24000D01*
X31324D01*
X32448D02*
Y23250D01*
X32074D01*
X31949Y23375D01*
Y23625D01*
X32074Y23750D01*
X32448D01*
X33448D02*
X33698Y23250D01*
X33948Y23750D01*
X34698Y23250D02*
X34198D01*
X34698Y23750D01*
Y23875D01*
X34573Y24000D01*
X34323D01*
X34198Y23875D01*
X1000Y5250D02*
Y4500D01*
Y4875D01*
X1500D01*
Y5250D01*
Y4500D01*
X1750Y5000D02*
Y4625D01*
X1875Y4500D01*
X2250D01*
Y5000D01*
X2999Y5250D02*
Y4500D01*
X2624D01*
X2500Y4625D01*
Y4875D01*
X2624Y5000D01*
X2999D01*
X3249Y4500D02*
X3624D01*
X3749Y4625D01*
X3624Y4750D01*
X3374D01*
X3249Y4875D01*
X3374Y5000D01*
X3749D01*
X4124Y4500D02*
X4374D01*
X4499Y4625D01*
Y4875D01*
X4374Y5000D01*
X4124D01*
X3999Y4875D01*
Y4625D01*
X4124Y4500D01*
X4749D02*
Y5000D01*
X5124D01*
X5249Y4875D01*
Y4500D01*
X1343Y6556D02*
Y5806D01*
X1843D01*
X2093Y6306D02*
Y5931D01*
X2218Y5806D01*
X2593D01*
Y6306D01*
X3343D02*
X2968D01*
X2843Y6181D01*
Y5931D01*
X2968Y5806D01*
X3343D01*
X3717Y6306D02*
X3967D01*
X4092Y6181D01*
Y5806D01*
X3717D01*
X3593Y5931D01*
X3717Y6056D01*
X4092D01*
X4342Y5806D02*
X4717D01*
X4842Y5931D01*
X4717Y6056D01*
X4467D01*
X4342Y6181D01*
X4467Y6306D01*
X4842D01*
X2250Y20625D02*
X2125Y20750D01*
X1875D01*
X1750Y20625D01*
Y20500D01*
X1875Y20375D01*
X2125D01*
X2250Y20250D01*
Y20125D01*
X2125Y20000D01*
X1875D01*
X1750Y20125D01*
X2875Y20000D02*
X2625D01*
X2500Y20125D01*
Y20375D01*
X2625Y20500D01*
X2875D01*
X3000Y20375D01*
Y20250D01*
X2500D01*
X3250Y20000D02*
X3499D01*
X3374D01*
Y20750D01*
X3250D01*
X3999Y20000D02*
Y20625D01*
Y20375D01*
X3874D01*
X4124D01*
X3999D01*
Y20625D01*
X4124Y20750D01*
X300Y19390D02*
Y18760D01*
X615D01*
X720Y18865D01*
Y18970D01*
X615Y19075D01*
X300D01*
X615D01*
X720Y19180D01*
Y19285D01*
X615Y19390D01*
X300D01*
X1035Y19180D02*
X1245D01*
X1350Y19075D01*
Y18760D01*
X1035D01*
X930Y18865D01*
X1035Y18970D01*
X1350D01*
X1559Y18760D02*
X1769D01*
X1664D01*
Y19390D01*
X1559D01*
X2189Y19180D02*
X2399D01*
X2504Y19075D01*
Y18760D01*
X2189D01*
X2084Y18865D01*
X2189Y18970D01*
X2504D01*
X2714Y18760D02*
Y19180D01*
X3029D01*
X3134Y19075D01*
Y18760D01*
X3763Y19180D02*
X3449D01*
X3344Y19075D01*
Y18865D01*
X3449Y18760D01*
X3763D01*
X3973D02*
X4183D01*
X4078D01*
Y19180D01*
X3973D01*
X4498Y18760D02*
Y19180D01*
X4813D01*
X4918Y19075D01*
Y18760D01*
X5338Y18550D02*
X5443D01*
X5548Y18655D01*
Y19180D01*
X5233D01*
X5128Y19075D01*
Y18865D01*
X5233Y18760D01*
X5548D01*
X1300Y17300D02*
Y18050D01*
X1675D01*
X1800Y17925D01*
Y17675D01*
X1675Y17550D01*
X1300D01*
X1550D02*
X1800Y17300D01*
X2175D02*
X2425D01*
X2550Y17425D01*
Y17675D01*
X2425Y17800D01*
X2175D01*
X2050Y17675D01*
Y17425D01*
X2175Y17300D01*
X2800Y18050D02*
Y17300D01*
X3174D01*
X3299Y17425D01*
Y17550D01*
Y17675D01*
X3174Y17800D01*
X2800D01*
X3674Y17300D02*
X3924D01*
X4049Y17425D01*
Y17675D01*
X3924Y17800D01*
X3674D01*
X3549Y17675D01*
Y17425D01*
X3674Y17300D01*
X4424Y17925D02*
Y17800D01*
X4299D01*
X4549D01*
X4424D01*
Y17425D01*
X4549Y17300D01*
D18*
X1789Y8489D02*
X1589D01*
X1489Y8389D01*
Y7989D01*
X1589Y7889D01*
X1789D01*
X1889Y7989D01*
Y8389D01*
X1789Y8489D01*
X2489D02*
X2089D01*
Y8189D01*
X2289D01*
X2089D01*
Y7889D01*
X3089Y8489D02*
X2689D01*
Y8189D01*
X2889D01*
X2689D01*
Y7889D01*
X3289D02*
X3689Y8289D01*
X4189Y8489D02*
X3989D01*
X3889Y8389D01*
Y7989D01*
X3989Y7889D01*
X4189D01*
X4288Y7989D01*
Y8389D01*
X4189Y8489D01*
X4488Y7889D02*
Y8489D01*
X4888Y7889D01*
Y8489D01*
D19*
X12227Y12424D02*
Y11912D01*
X12057Y12083D01*
X11886Y11912D01*
Y12424D01*
X11716Y11912D02*
X11545D01*
X11630D01*
Y12424D01*
X11716D01*
X11545D01*
X11289D02*
Y11912D01*
X10948Y12424D01*
Y11912D01*
X10778D02*
X10607D01*
X10692D01*
Y12424D01*
X10778D01*
X10607D01*
X9840Y11998D02*
X9754Y11912D01*
X9584D01*
X9498Y11998D01*
Y12083D01*
X9584Y12168D01*
X9669D01*
X9584D01*
X9498Y12253D01*
Y12339D01*
X9584Y12424D01*
X9754D01*
X9840Y12339D01*
X8987Y11912D02*
X9157Y11998D01*
X9328Y12168D01*
Y12339D01*
X9243Y12424D01*
X9072D01*
X8987Y12339D01*
Y12253D01*
X9072Y12168D01*
X9328D01*
X8816Y11998D02*
X8731Y11912D01*
X8560D01*
X8475Y11998D01*
Y12339D01*
X8560Y12424D01*
X8731D01*
X8816Y12339D01*
Y11998D01*
X9177Y13812D02*
X9007D01*
X9092D01*
Y14324D01*
X9177D01*
X9007D01*
X8751D02*
Y13812D01*
X8410Y14324D01*
Y13812D01*
X8239Y14068D02*
X7898D01*
X12521Y13812D02*
X12692D01*
X12777Y13898D01*
Y14239D01*
X12692Y14324D01*
X12521D01*
X12436Y14239D01*
Y13898D01*
X12521Y13812D01*
X12266D02*
Y14239D01*
X12180Y14324D01*
X12010D01*
X11925Y14239D01*
Y13812D01*
X11754D02*
X11413D01*
X11583D01*
Y14324D01*
X11242Y14068D02*
X10901D01*
X9177Y10062D02*
X9007D01*
X9092D01*
Y10574D01*
X9177D01*
X9007D01*
X8751D02*
Y10062D01*
X8410Y10574D01*
Y10062D01*
X8239Y10318D02*
X7898D01*
X8069Y10148D02*
Y10489D01*
X12521Y10062D02*
X12692D01*
X12777Y10148D01*
Y10489D01*
X12692Y10574D01*
X12521D01*
X12436Y10489D01*
Y10148D01*
X12521Y10062D01*
X12266D02*
Y10489D01*
X12180Y10574D01*
X12010D01*
X11925Y10489D01*
Y10062D01*
X11754D02*
X11413D01*
X11583D01*
Y10574D01*
X11242Y10318D02*
X10901D01*
X11072Y10148D02*
Y10489D01*
X27012Y20344D02*
X26750D01*
Y19950D01*
X27012D01*
X26750Y20147D02*
X26881D01*
X27144Y19950D02*
Y20344D01*
X27406Y19950D01*
Y20344D01*
X34300D02*
Y19950D01*
X34497D01*
X34562Y20016D01*
Y20278D01*
X34497Y20344D01*
X34300D01*
X34956Y19950D02*
X34694D01*
X34956Y20212D01*
Y20278D01*
X34890Y20344D01*
X34759D01*
X34694Y20278D01*
X35087D02*
X35153Y20344D01*
X35284D01*
X35350Y20278D01*
Y20212D01*
X35284Y20147D01*
X35218D01*
X35284D01*
X35350Y20081D01*
Y20016D01*
X35284Y19950D01*
X35153D01*
X35087Y20016D01*
X26750Y19344D02*
Y18950D01*
X26947D01*
X27012Y19016D01*
Y19278D01*
X26947Y19344D01*
X26750D01*
X27144Y19278D02*
X27209Y19344D01*
X27340D01*
X27406Y19278D01*
Y19212D01*
X27340Y19147D01*
X27275D01*
X27340D01*
X27406Y19081D01*
Y19016D01*
X27340Y18950D01*
X27209D01*
X27144Y19016D01*
X27800Y19344D02*
X27668Y19278D01*
X27537Y19147D01*
Y19016D01*
X27603Y18950D01*
X27734D01*
X27800Y19016D01*
Y19081D01*
X27734Y19147D01*
X27537D01*
X34300Y12344D02*
X34562D01*
X34431D01*
Y11950D01*
X34694Y12344D02*
X34956Y11950D01*
Y12344D02*
X34694Y11950D01*
X35350D02*
X35087D01*
X35350Y12212D01*
Y12278D01*
X35284Y12344D01*
X35153D01*
X35087Y12278D01*
X34300Y10950D02*
Y11344D01*
X34497D01*
X34562Y11278D01*
Y11147D01*
X34497Y11081D01*
X34300D01*
X34431D02*
X34562Y10950D01*
X34694Y11344D02*
X34956Y10950D01*
Y11344D02*
X34694Y10950D01*
X35350D02*
X35087D01*
X35350Y11212D01*
Y11278D01*
X35284Y11344D01*
X35153D01*
X35087Y11278D01*
X34300Y8344D02*
Y7950D01*
X34497D01*
X34562Y8016D01*
Y8278D01*
X34497Y8344D01*
X34300D01*
X34694Y7950D02*
X34825D01*
X34759D01*
Y8344D01*
X34694Y8278D01*
X35284Y8344D02*
X35022D01*
Y8147D01*
X35153Y8212D01*
X35218D01*
X35284Y8147D01*
Y8016D01*
X35218Y7950D01*
X35087D01*
X35022Y8016D01*
X34300Y9344D02*
Y8950D01*
X34497D01*
X34562Y9016D01*
Y9278D01*
X34497Y9344D01*
X34300D01*
X34694Y9278D02*
X34759Y9344D01*
X34890D01*
X34956Y9278D01*
Y9016D01*
X34890Y8950D01*
X34759D01*
X34694Y9016D01*
Y9278D01*
X35350Y8950D02*
X35087D01*
X35350Y9212D01*
Y9278D01*
X35284Y9344D01*
X35153D01*
X35087Y9278D01*
X34562Y7278D02*
X34497Y7344D01*
X34366D01*
X34300Y7278D01*
Y7016D01*
X34366Y6950D01*
X34497D01*
X34562Y7016D01*
Y7147D01*
X34431D01*
X34694Y6950D02*
Y7344D01*
X34956Y6950D01*
Y7344D01*
X35087D02*
Y6950D01*
X35284D01*
X35350Y7016D01*
Y7278D01*
X35284Y7344D01*
X35087D01*
X34300Y10344D02*
Y9950D01*
X34497D01*
X34562Y10016D01*
Y10278D01*
X34497Y10344D01*
X34300D01*
X34694Y10278D02*
X34759Y10344D01*
X34890D01*
X34956Y10278D01*
Y10016D01*
X34890Y9950D01*
X34759D01*
X34694Y10016D01*
Y10278D01*
X35284Y9950D02*
Y10344D01*
X35087Y10147D01*
X35350D01*
X34300Y6278D02*
X34366Y6344D01*
X34497D01*
X34562Y6278D01*
Y6212D01*
X34497Y6147D01*
X34431D01*
X34497D01*
X34562Y6081D01*
Y6016D01*
X34497Y5950D01*
X34366D01*
X34300Y6016D01*
X34694Y6344D02*
Y6081D01*
X34825Y5950D01*
X34956Y6081D01*
Y6344D01*
X35087Y6278D02*
X35153Y6344D01*
X35284D01*
X35350Y6278D01*
Y6212D01*
X35284Y6147D01*
X35218D01*
X35284D01*
X35350Y6081D01*
Y6016D01*
X35284Y5950D01*
X35153D01*
X35087Y6016D01*
X26750Y18344D02*
Y17950D01*
X26947D01*
X27012Y18016D01*
Y18278D01*
X26947Y18344D01*
X26750D01*
X27144Y18278D02*
X27209Y18344D01*
X27340D01*
X27406Y18278D01*
Y18212D01*
X27340Y18147D01*
X27275D01*
X27340D01*
X27406Y18081D01*
Y18016D01*
X27340Y17950D01*
X27209D01*
X27144Y18016D01*
X27537D02*
X27603Y17950D01*
X27734D01*
X27800Y18016D01*
Y18278D01*
X27734Y18344D01*
X27603D01*
X27537Y18278D01*
Y18212D01*
X27603Y18147D01*
X27800D01*
X26750Y9344D02*
Y8950D01*
X26947D01*
X27012Y9016D01*
Y9278D01*
X26947Y9344D01*
X26750D01*
X27144Y8950D02*
X27275D01*
X27209D01*
Y9344D01*
X27144Y9278D01*
X27734Y8950D02*
X27472D01*
X27734Y9212D01*
Y9278D01*
X27668Y9344D01*
X27537D01*
X27472Y9278D01*
X26750Y6344D02*
Y6081D01*
X26881Y5950D01*
X27012Y6081D01*
Y6344D01*
X27144D02*
X27275D01*
X27209D01*
Y5950D01*
X27144D01*
X27275D01*
X27472D02*
Y6344D01*
X27734Y5950D01*
Y6344D01*
X27012Y7278D02*
X26947Y7344D01*
X26816D01*
X26750Y7278D01*
Y7016D01*
X26816Y6950D01*
X26947D01*
X27012Y7016D01*
Y7147D01*
X26881D01*
X27144Y6950D02*
Y7344D01*
X27406Y6950D01*
Y7344D01*
X27537D02*
Y6950D01*
X27734D01*
X27800Y7016D01*
Y7278D01*
X27734Y7344D01*
X27537D01*
X26750Y10344D02*
Y9950D01*
X26947D01*
X27012Y10016D01*
Y10278D01*
X26947Y10344D01*
X26750D01*
X27144Y9950D02*
X27275D01*
X27209D01*
Y10344D01*
X27144Y10278D01*
X27668Y9950D02*
Y10344D01*
X27472Y10147D01*
X27734D01*
X26750Y11344D02*
Y10950D01*
X26947D01*
X27012Y11016D01*
Y11278D01*
X26947Y11344D01*
X26750D01*
X27406Y10950D02*
X27144D01*
X27406Y11212D01*
Y11278D01*
X27340Y11344D01*
X27209D01*
X27144Y11278D01*
X27537Y11344D02*
X27800D01*
Y11278D01*
X27537Y11016D01*
Y10950D01*
X26800Y8344D02*
Y7950D01*
X26997D01*
X27062Y8016D01*
Y8278D01*
X26997Y8344D01*
X26800D01*
X27194Y7950D02*
X27325D01*
X27259D01*
Y8344D01*
X27194Y8278D01*
X27522D02*
X27587Y8344D01*
X27718D01*
X27784Y8278D01*
Y8212D01*
X27718Y8147D01*
X27653D01*
X27718D01*
X27784Y8081D01*
Y8016D01*
X27718Y7950D01*
X27587D01*
X27522Y8016D01*
X26750Y12344D02*
Y11950D01*
X26947D01*
X27012Y12016D01*
Y12278D01*
X26947Y12344D01*
X26750D01*
X27406Y11950D02*
X27144D01*
X27406Y12212D01*
Y12278D01*
X27340Y12344D01*
X27209D01*
X27144Y12278D01*
X27800Y12344D02*
X27668Y12278D01*
X27537Y12147D01*
Y12016D01*
X27603Y11950D01*
X27734D01*
X27800Y12016D01*
Y12081D01*
X27734Y12147D01*
X27537D01*
X26750Y15344D02*
Y14950D01*
X26947D01*
X27012Y15016D01*
Y15278D01*
X26947Y15344D01*
X26750D01*
X27144Y15278D02*
X27209Y15344D01*
X27340D01*
X27406Y15278D01*
Y15212D01*
X27340Y15147D01*
X27275D01*
X27340D01*
X27406Y15081D01*
Y15016D01*
X27340Y14950D01*
X27209D01*
X27144Y15016D01*
X27800Y14950D02*
X27537D01*
X27800Y15212D01*
Y15278D01*
X27734Y15344D01*
X27603D01*
X27537Y15278D01*
X26750Y17344D02*
Y16950D01*
X26947D01*
X27012Y17016D01*
Y17278D01*
X26947Y17344D01*
X26750D01*
X27144Y17278D02*
X27209Y17344D01*
X27340D01*
X27406Y17278D01*
Y17212D01*
X27340Y17147D01*
X27275D01*
X27340D01*
X27406Y17081D01*
Y17016D01*
X27340Y16950D01*
X27209D01*
X27144Y17016D01*
X27734Y16950D02*
Y17344D01*
X27537Y17147D01*
X27800D01*
X26750Y16344D02*
Y15950D01*
X26947D01*
X27012Y16016D01*
Y16278D01*
X26947Y16344D01*
X26750D01*
X27144Y16278D02*
X27209Y16344D01*
X27340D01*
X27406Y16278D01*
Y16212D01*
X27340Y16147D01*
X27275D01*
X27340D01*
X27406Y16081D01*
Y16016D01*
X27340Y15950D01*
X27209D01*
X27144Y16016D01*
X27800Y16344D02*
X27537D01*
Y16147D01*
X27668Y16212D01*
X27734D01*
X27800Y16147D01*
Y16016D01*
X27734Y15950D01*
X27603D01*
X27537Y16016D01*
X26750Y14344D02*
Y13950D01*
X26947D01*
X27012Y14016D01*
Y14278D01*
X26947Y14344D01*
X26750D01*
X27144Y14278D02*
X27209Y14344D01*
X27340D01*
X27406Y14278D01*
Y14212D01*
X27340Y14147D01*
X27275D01*
X27340D01*
X27406Y14081D01*
Y14016D01*
X27340Y13950D01*
X27209D01*
X27144Y14016D01*
X27537Y14278D02*
X27603Y14344D01*
X27734D01*
X27800Y14278D01*
Y14212D01*
X27734Y14147D01*
X27668D01*
X27734D01*
X27800Y14081D01*
Y14016D01*
X27734Y13950D01*
X27603D01*
X27537Y14016D01*
X26750Y13344D02*
Y12950D01*
X26947D01*
X27012Y13016D01*
Y13278D01*
X26947Y13344D01*
X26750D01*
X27406Y12950D02*
X27144D01*
X27406Y13212D01*
Y13278D01*
X27340Y13344D01*
X27209D01*
X27144Y13278D01*
X27800Y13344D02*
X27537D01*
Y13147D01*
X27668Y13212D01*
X27734D01*
X27800Y13147D01*
Y13016D01*
X27734Y12950D01*
X27603D01*
X27537Y13016D01*
X34300Y15344D02*
Y14950D01*
X34497D01*
X34562Y15016D01*
Y15278D01*
X34497Y15344D01*
X34300D01*
X34694Y14950D02*
X34825D01*
X34759D01*
Y15344D01*
X34694Y15278D01*
X35022Y15016D02*
X35087Y14950D01*
X35218D01*
X35284Y15016D01*
Y15278D01*
X35218Y15344D01*
X35087D01*
X35022Y15278D01*
Y15212D01*
X35087Y15147D01*
X35284D01*
X34300Y13394D02*
Y13000D01*
X34497D01*
X34562Y13066D01*
Y13328D01*
X34497Y13394D01*
X34300D01*
X34694Y13328D02*
X34759Y13394D01*
X34890D01*
X34956Y13328D01*
Y13066D01*
X34890Y13000D01*
X34759D01*
X34694Y13066D01*
Y13328D01*
X35350Y13394D02*
X35087D01*
Y13197D01*
X35218Y13262D01*
X35284D01*
X35350Y13197D01*
Y13066D01*
X35284Y13000D01*
X35153D01*
X35087Y13066D01*
X34300Y14344D02*
Y13950D01*
X34497D01*
X34562Y14016D01*
Y14278D01*
X34497Y14344D01*
X34300D01*
X34694Y13950D02*
X34825D01*
X34759D01*
Y14344D01*
X34694Y14278D01*
X35022D02*
X35087Y14344D01*
X35218D01*
X35284Y14278D01*
Y14212D01*
X35218Y14147D01*
X35284Y14081D01*
Y14016D01*
X35218Y13950D01*
X35087D01*
X35022Y14016D01*
Y14081D01*
X35087Y14147D01*
X35022Y14212D01*
Y14278D01*
X35087Y14147D02*
X35218D01*
X34300Y16394D02*
Y16000D01*
X34497D01*
X34562Y16066D01*
Y16328D01*
X34497Y16394D01*
X34300D01*
X34956Y16000D02*
X34694D01*
X34956Y16262D01*
Y16328D01*
X34890Y16394D01*
X34759D01*
X34694Y16328D01*
X35087Y16000D02*
X35218D01*
X35153D01*
Y16394D01*
X35087Y16328D01*
X34300Y19344D02*
Y18950D01*
X34497D01*
X34562Y19016D01*
Y19278D01*
X34497Y19344D01*
X34300D01*
X34956Y18950D02*
X34694D01*
X34956Y19212D01*
Y19278D01*
X34890Y19344D01*
X34759D01*
X34694Y19278D01*
X35350Y18950D02*
X35087D01*
X35350Y19212D01*
Y19278D01*
X35284Y19344D01*
X35153D01*
X35087Y19278D01*
X34300Y18344D02*
X34562D01*
X34431D01*
Y17950D01*
X34694Y18344D02*
X34956Y17950D01*
Y18344D02*
X34694Y17950D01*
X35087Y18278D02*
X35153Y18344D01*
X35284D01*
X35350Y18278D01*
Y18016D01*
X35284Y17950D01*
X35153D01*
X35087Y18016D01*
Y18278D01*
X34300Y16950D02*
Y17344D01*
X34497D01*
X34562Y17278D01*
Y17147D01*
X34497Y17081D01*
X34300D01*
X34431D02*
X34562Y16950D01*
X34694Y17344D02*
X34956Y16950D01*
Y17344D02*
X34694Y16950D01*
X35087Y17278D02*
X35153Y17344D01*
X35284D01*
X35350Y17278D01*
Y17016D01*
X35284Y16950D01*
X35153D01*
X35087Y17016D01*
Y17278D01*
D20*
X19133Y4307D02*
X19466D01*
X22033Y4373D02*
X22366D01*
X22200Y4540D02*
Y4207D01*
D21*
X23010Y17873D02*
Y18023D01*
Y17948D01*
X23460D01*
Y17873D01*
Y18023D01*
Y18248D02*
X23010D01*
X23460Y18548D01*
X23010D01*
Y18698D02*
Y18997D01*
Y18848D01*
X23460D01*
D22*
X16010Y17873D02*
X16310D01*
X16460Y18023D01*
X16310Y18173D01*
X16010D01*
X16085Y18623D02*
X16010Y18548D01*
Y18398D01*
X16085Y18323D01*
X16385D01*
X16460Y18398D01*
Y18548D01*
X16385Y18623D01*
X16085Y19072D02*
X16010Y18997D01*
Y18848D01*
X16085Y18773D01*
X16385D01*
X16460Y18848D01*
Y18997D01*
X16385Y19072D01*
X17085Y18173D02*
X17010Y18098D01*
Y17948D01*
X17085Y17873D01*
X17385D01*
X17460Y17948D01*
Y18098D01*
X17385Y18173D01*
X17235D01*
Y18023D01*
X17460Y18323D02*
X17010D01*
X17460Y18623D01*
X17010D01*
Y18773D02*
X17460D01*
Y18997D01*
X17385Y19072D01*
X17085D01*
X17010Y18997D01*
Y18773D01*
X18085Y18173D02*
X18010Y18098D01*
Y17948D01*
X18085Y17873D01*
X18160D01*
X18235Y17948D01*
Y18098D01*
X18310Y18173D01*
X18385D01*
X18460Y18098D01*
Y17948D01*
X18385Y17873D01*
X18085Y18623D02*
X18010Y18548D01*
Y18398D01*
X18085Y18323D01*
X18385D01*
X18460Y18398D01*
Y18548D01*
X18385Y18623D01*
X18010Y18773D02*
X18460D01*
Y19072D01*
X19085Y18173D02*
X19010Y18098D01*
Y17948D01*
X19085Y17873D01*
X19160D01*
X19235Y17948D01*
Y18098D01*
X19310Y18173D01*
X19385D01*
X19460Y18098D01*
Y17948D01*
X19385Y17873D01*
X19010Y18323D02*
X19460D01*
Y18548D01*
X19385Y18623D01*
X19085D01*
X19010Y18548D01*
Y18323D01*
X19460Y18773D02*
X19160D01*
X19010Y18923D01*
X19160Y19072D01*
X19460D01*
X19235D01*
Y18773D01*
X20010Y17873D02*
X20460Y18173D01*
X20010D02*
X20460Y17873D01*
X20010Y18323D02*
X20460D01*
Y18548D01*
X20385Y18623D01*
X20085D01*
X20010Y18548D01*
Y18323D01*
X20460Y18773D02*
X20160D01*
X20010Y18923D01*
X20160Y19072D01*
X20460D01*
X20235D01*
Y18773D01*
X21010Y17873D02*
X21460Y18173D01*
X21010D02*
X21460Y17873D01*
X21085Y18623D02*
X21010Y18548D01*
Y18398D01*
X21085Y18323D01*
X21385D01*
X21460Y18398D01*
Y18548D01*
X21385Y18623D01*
X21010Y18773D02*
X21460D01*
Y19072D01*
X22460Y17873D02*
X22160D01*
X22010Y18023D01*
X22160Y18173D01*
X22460D01*
X22235D01*
Y17873D01*
X22010Y18323D02*
X22460D01*
Y18548D01*
X22385Y18623D01*
X22085D01*
X22010Y18548D01*
Y18323D01*
Y18997D02*
Y18848D01*
X22085Y18773D01*
X22385D01*
X22460Y18848D01*
Y18997D01*
X22385Y19072D01*
X22085D01*
X22010Y18997D01*
D23*
X17460Y21823D02*
Y22512D01*
X17690Y22282D01*
X17919Y22512D01*
Y21823D01*
X18149D02*
Y22512D01*
X18493D01*
X18608Y22397D01*
Y22167D01*
X18493Y22052D01*
X18149D01*
X18838Y22512D02*
Y21938D01*
X18952Y21823D01*
X19182D01*
X19297Y21938D01*
Y22512D01*
X19985D02*
X19756Y22397D01*
X19526Y22167D01*
Y21938D01*
X19641Y21823D01*
X19871D01*
X19985Y21938D01*
Y22052D01*
X19871Y22167D01*
X19526D01*
X20215Y22397D02*
X20330Y22512D01*
X20559D01*
X20674Y22397D01*
Y21938D01*
X20559Y21823D01*
X20330D01*
X20215Y21938D01*
Y22397D01*
X21363Y22512D02*
X20904D01*
Y22167D01*
X21133Y22282D01*
X21248D01*
X21363Y22167D01*
Y21938D01*
X21248Y21823D01*
X21019D01*
X20904Y21938D01*
X21593Y22397D02*
X21707Y22512D01*
X21937D01*
X22052Y22397D01*
Y21938D01*
X21937Y21823D01*
X21707D01*
X21593Y21938D01*
Y22397D01*
D24*
X27262Y4694D02*
X27000D01*
Y4300D01*
X27262D01*
X27000Y4497D02*
X27131D01*
X27394Y4300D02*
Y4562D01*
X27590D01*
X27656Y4497D01*
Y4300D01*
X27853Y4562D02*
X27984D01*
X28050Y4497D01*
Y4300D01*
X27853D01*
X27787Y4366D01*
X27853Y4431D01*
X28050D01*
X28181Y4694D02*
Y4300D01*
X28378D01*
X28443Y4366D01*
Y4431D01*
Y4497D01*
X28378Y4562D01*
X28181D01*
X28574Y4300D02*
X28705D01*
X28640D01*
Y4694D01*
X28574D01*
X29099Y4300D02*
X28968D01*
X28902Y4366D01*
Y4497D01*
X28968Y4562D01*
X29099D01*
X29165Y4497D01*
Y4431D01*
X28902D01*
X33450Y4644D02*
Y4250D01*
X33647D01*
X33712Y4316D01*
Y4381D01*
X33647Y4447D01*
X33450D01*
X33647D01*
X33712Y4512D01*
Y4578D01*
X33647Y4644D01*
X33450D01*
X33909Y4250D02*
X34040D01*
X34106Y4316D01*
Y4447D01*
X34040Y4512D01*
X33909D01*
X33844Y4447D01*
Y4316D01*
X33909Y4250D01*
X34303D02*
X34434D01*
X34500Y4316D01*
Y4447D01*
X34434Y4512D01*
X34303D01*
X34237Y4447D01*
Y4316D01*
X34303Y4250D01*
X34696Y4578D02*
Y4512D01*
X34631D01*
X34762D01*
X34696D01*
Y4316D01*
X34762Y4250D01*
X30578Y3225D02*
Y2897D01*
X30643Y2831D01*
X30774D01*
X30840Y2897D01*
Y3225D01*
X31234Y3159D02*
X31168Y3225D01*
X31037D01*
X30971Y3159D01*
Y3093D01*
X31037Y3028D01*
X31168D01*
X31234Y2962D01*
Y2897D01*
X31168Y2831D01*
X31037D01*
X30971Y2897D01*
X31365Y3225D02*
Y2831D01*
X31562D01*
X31627Y2897D01*
Y2962D01*
X31562Y3028D01*
X31365D01*
X31562D01*
X31627Y3093D01*
Y3159D01*
X31562Y3225D01*
X31365D01*
M02*
